<?xml version="1.0" standalone="no"?>
<!DOCTYPE svg PUBLIC "-//W3C//DTD SVG 20010904//EN"
 "http://www.w3.org/TR/2001/REC-SVG-20010904/DTD/svg10.dtd">
<svg version="1.0" xmlns="http://www.w3.org/2000/svg"
 width="3111.000000pt" height="3111.000000pt" viewBox="0 0 3111.000000 3111.000000"
 preserveAspectRatio="xMidYMid meet">
<metadata>
Created by potrace 1.14, written by Peter Selinger 2001-2017
</metadata>
<g transform="translate(0.000000,3111.000000) scale(0.100000,-0.100000)"
fill="#000000" stroke="none">
<path d="M10 16844 l0 -6432 5538 0 c3045 -1 5542 -1 5548 -1 8 -1 5 -26 -8
-78 -23 -97 -47 -208 -54 -252 -3 -18 -7 -42 -9 -51 -2 -10 -6 -40 -10 -67 -4
-26 -9 -59 -11 -73 -18 -115 -22 -268 -10 -364 5 -33 10 -121 12 -195 1 -77 9
-162 18 -195 8 -34 14 -99 14 -155 -1 -158 43 -287 142 -413 28 -35 99 -129
159 -210 60 -81 132 -168 161 -195 177 -164 379 -271 570 -303 115 -20 321
-22 376 -5 84 27 197 55 239 61 70 9 142 34 184 65 23 16 41 33 41 39 0 5 12
15 28 22 20 11 27 20 25 41 -1 21 6 31 35 48 77 47 172 110 172 115 0 2 -11 2
-24 -2 -13 -3 -26 -1 -30 4 -3 5 -17 7 -31 4 -27 -5 -33 6 -13 26 9 9 7 12 -8
12 -44 0 -36 33 16 70 36 26 46 28 125 30 59 1 61 2 103 51 48 57 52 75 18 91
-17 7 -26 20 -28 42 l-3 31 -38 -38 c-33 -34 -37 -43 -31 -73 3 -19 2 -34 -2
-34 -13 0 -94 44 -94 51 0 4 30 26 68 50 37 24 69 44 71 46 2 1 -11 14 -28 28
-39 33 -39 53 -1 85 16 14 32 38 34 55 20 117 103 318 157 379 29 33 33 35 44
19 12 -16 15 -15 46 11 19 16 34 34 34 40 2 22 23 61 44 80 11 11 21 23 21 27
0 12 -63 68 -71 63 -4 -2 -3 -20 1 -40 8 -33 6 -37 -21 -48 l-28 -12 20 -18
c24 -20 18 -28 -29 -44 -27 -9 -34 -9 -38 3 -8 19 11 122 41 230 36 128 64
250 86 375 7 41 21 94 30 118 18 41 18 43 -1 54 -18 11 -18 13 -1 37 28 41 48
102 56 166 11 107 14 120 30 158 13 33 19 37 50 37 26 0 33 -3 29 -15 -8 -19
16 -20 42 0 10 8 22 15 27 15 4 0 7 -34 7 -75 0 -43 -4 -75 -10 -75 -5 0 -10
7 -10 15 0 26 -13 17 -85 -57 -38 -40 -64 -69 -57 -64 7 4 26 4 43 1 l31 -7
-22 -23 -22 -23 22 -12 c12 -7 45 -12 72 -13 l49 0 -26 -21 c-32 -26 -74 -144
-81 -229 -6 -65 -19 -162 -29 -212 -22 -108 -93 -309 -160 -448 l-32 -67 -41
30 -41 29 -17 -44 c-9 -25 -21 -45 -27 -45 -6 0 -8 -2 -5 -5 2 -3 26 -1 51 4
l47 8 10 -36 c14 -51 16 -45 -44 -135 -30 -44 -65 -103 -77 -130 -12 -27 -37
-73 -55 -102 -38 -59 -33 -67 39 -58 41 6 87 36 87 58 0 23 113 235 175 331
97 149 125 235 100 305 -11 32 -11 41 1 59 8 12 23 21 33 21 19 0 32 41 62
195 6 33 19 81 29 106 17 46 17 46 -4 41 -12 -2 -31 -14 -43 -25 l-23 -20 0
22 c0 22 33 60 84 94 26 18 27 20 9 39 -11 12 -16 32 -15 52 2 17 -2 44 -8 60
-10 28 -10 28 19 23 34 -7 40 -1 51 49 6 26 4 36 -7 43 -14 7 -13 11 5 29 12
12 28 35 37 52 15 29 18 43 30 159 9 85 15 101 39 102 11 0 3857 1 8546 2
l8525 2 2 6410 c1 3526 0 6419 -2 6430 l-4 20 -15546 0 -15545 0 0 -6431z
m30972 3 c0 -3464 -2 -6300 -5 -6303 -3 -3 -16053 -7 -16883 -4 -44 0 -52 3
-57 21 -5 19 -11 21 -57 17 -27 -3 -58 -12 -68 -22 -10 -9 -26 -16 -35 -16
-18 0 -16 31 8 103 15 43 10 45 -25 14 -37 -33 -60 -68 -60 -94 0 -19 -5 -23
-31 -23 -16 0 -28 4 -25 9 8 12 -16 29 -36 26 -25 -4 -23 1 14 34 l32 28 0
135 c1 89 5 140 13 149 7 8 14 29 18 46 3 18 10 44 15 58 9 23 7 28 -9 32 -18
5 -19 7 -6 27 10 15 13 48 12 112 -1 62 2 96 11 107 8 9 15 59 18 133 3 64 9
125 15 135 5 10 9 34 9 53 l0 35 -45 -14 c-25 -7 -47 -10 -50 -5 -3 4 19 23
48 41 l54 33 -2 106 c-1 92 -4 110 -23 137 -12 17 -22 34 -22 37 0 7 39 1 90
-14 19 -5 38 -10 41 -10 11 0 48 96 54 139 9 71 16 94 28 82 7 -7 6 -15 -2
-25 -11 -13 -11 -26 -1 -67 7 -28 10 -66 7 -85 -6 -34 -5 -36 46 -60 65 -30
69 -30 89 4 20 33 24 67 14 109 -5 22 -2 41 9 62 38 74 21 185 -35 232 l-30
26 32 63 c30 57 33 73 35 158 2 104 -12 148 -63 195 l-26 24 31 11 c16 6 38
20 48 32 18 21 18 24 21 234 1 63 -10 84 -60 106 l-40 18 39 18 38 19 2 148
c2 167 -8 218 -56 278 l-31 38 34 11 c28 9 33 15 34 43 1 18 8 58 16 89 8 31
13 65 12 74 -2 10 12 48 30 84 27 54 45 117 46 157 0 36 61 64 73 34 6 -14 9
-12 26 8 10 13 19 30 19 38 0 19 85 99 125 117 17 8 52 24 78 36 l48 23 -20
21 -21 22 49 50 c111 113 130 128 167 130 43 4 56 13 97 73 17 25 37 53 45 61
10 10 11 15 3 18 -22 7 -10 21 80 96 50 42 105 93 122 114 17 21 69 67 114
102 102 79 134 122 218 291 l66 131 -22 64 c-13 35 -26 64 -30 64 -4 0 -62
-45 -128 -100 -67 -55 -151 -119 -189 -142 -96 -59 -262 -175 -282 -198 -3 -3
-57 -46 -120 -95 -62 -50 -132 -110 -155 -134 -69 -76 -119 -123 -215 -201
-30 -25 -57 -47 -60 -50 -3 -3 -27 -23 -55 -45 -27 -21 -71 -59 -96 -83 -36
-34 -52 -43 -68 -37 -17 5 -19 10 -11 25 5 10 7 74 4 153 -4 116 -2 145 14
194 16 48 18 78 14 172 -4 110 -11 137 -47 201 -20 34 -19 73 3 114 13 23 17
48 14 82 -2 27 -6 162 -9 299 -2 138 -6 309 -8 380 -2 72 -4 183 -4 247 -1
110 -2 117 -20 113 -11 -2 -36 9 -57 26 -20 16 -41 29 -46 29 -4 0 -18 20 -30
45 -24 49 -29 51 -139 46 -41 -2 -67 3 -94 18 -21 11 -48 17 -63 15 -23 -5
-72 -49 -72 -66 0 -4 -35 -43 -79 -87 -43 -43 -115 -126 -160 -185 -45 -58
-86 -108 -92 -112 -6 -3 -41 -47 -78 -98 -37 -50 -95 -123 -129 -161 -34 -38
-62 -72 -62 -76 0 -14 -77 -138 -115 -185 -22 -27 -65 -75 -95 -106 l-55 -57
1 142 c1 128 6 215 19 347 8 75 6 193 -4 234 -5 22 -8 70 -7 107 2 37 0 72 -3
77 -11 17 -191 133 -236 152 -24 10 -63 22 -87 25 -24 4 -45 7 -48 8 -26 7
-73 -18 -103 -55 -33 -41 -34 -46 -28 -95 5 -32 16 -62 28 -75 12 -13 28 -43
36 -68 15 -45 15 -61 2 -180 -4 -36 -8 -84 -9 -107 -1 -40 -7 -47 -126 -165
-122 -120 -168 -163 -260 -242 -25 -21 -117 -107 -205 -191 -88 -83 -205 -193
-260 -243 -55 -50 -139 -131 -186 -179 -175 -178 -273 -258 -374 -303 -74 -33
-103 -37 -143 -16 -49 26 -76 61 -126 165 -64 131 -76 225 -62 456 8 134 -20
216 -89 263 -73 50 -131 39 -261 -49 -41 -28 -77 -50 -79 -47 -2 2 10 44 26
93 36 108 39 178 11 258 -62 173 -199 238 -507 240 -94 0 -104 -2 -164 -32
-160 -82 -300 -221 -395 -395 -15 -27 -61 -106 -103 -175 -66 -109 -131 -237
-197 -386 -46 -102 -76 -203 -91 -297 -9 -57 -27 -159 -40 -228 -28 -147 -27
-228 6 -315 41 -111 106 -188 180 -214 30 -10 75 -28 102 -40 46 -20 61 -21
247 -24 228 -4 387 86 663 373 81 85 147 160 147 167 0 7 17 29 38 50 22 21
49 63 62 96 12 31 27 60 32 63 5 3 26 -13 46 -36 141 -163 268 -272 396 -340
45 -23 69 -29 119 -29 110 0 299 65 417 143 30 20 59 36 65 36 11 0 215 165
250 203 12 12 39 49 62 82 23 33 62 80 87 105 40 39 58 70 40 70 -3 0 -24 -15
-47 -33 -23 -19 -59 -46 -79 -62 -37 -26 -38 -27 -38 -6 0 12 6 21 14 21 8 0
28 11 43 24 l28 24 -40 -5 -40 -5 28 22 c15 12 36 39 47 59 10 21 36 51 57 66
21 16 58 48 83 71 84 78 114 104 121 104 8 0 29 41 34 68 4 24 -1 20 -154
-112 -31 -26 -84 -61 -118 -78 -35 -16 -63 -36 -63 -44 0 -8 -10 -14 -25 -14
-13 0 -39 -13 -57 -29 -41 -35 -78 -55 -86 -46 -4 4 2 11 12 17 11 6 70 60
130 120 61 60 143 134 181 163 39 29 107 92 152 139 86 90 116 105 127 62 8
-34 -6 -65 -48 -105 -20 -19 -36 -41 -36 -48 0 -16 1 -16 37 0 42 17 84 55
120 107 17 25 52 63 78 84 26 22 86 77 134 123 83 80 86 82 93 58 13 -50 -1
-297 -21 -359 -10 -34 -17 -80 -15 -107 3 -52 18 -78 134 -237 9 -11 28 -24
43 -27 23 -6 28 -3 37 20 6 15 8 31 4 36 -3 5 -3 9 0 9 2 0 12 3 20 6 12 5 15
2 10 -9 -3 -9 6 -31 21 -52 22 -28 34 -35 63 -35 l35 0 -29 -25 c-32 -28 -24
-47 19 -47 63 0 127 33 190 100 34 36 89 93 122 126 34 34 91 98 128 143 38
45 86 96 108 113 21 18 88 100 148 183 151 210 154 214 222 285 54 56 62 61
82 51 32 -17 33 -21 27 -86 -3 -32 -2 -76 1 -98 23 -137 29 -237 34 -615 2
-157 7 -348 10 -425 3 -77 5 -178 4 -225 -3 -143 -3 -163 4 -229 7 -74 -11
-121 -65 -166 -56 -46 -230 -209 -252 -235 -24 -29 -90 -94 -197 -196 -207
-197 -490 -509 -759 -839 -58 -71 -140 -171 -184 -224 -85 -104 -360 -511
-476 -706 -70 -117 -265 -506 -330 -655 -33 -77 -41 -95 -83 -190 -49 -113
-145 -363 -178 -467 l-23 -73 -180 0 c-229 0 -10737 0 -10791 0 l-40 0 0 6305
0 6305 15424 -2 15423 -3 0 -6298z m-17408 -417 c-3 -30 -12 -74 -20 -96 -13
-37 -19 -42 -54 -48 -42 -7 -70 -35 -70 -73 0 -25 -34 -39 -70 -30 -12 3 -24
-1 -30 -11 -8 -13 -10 -8 -8 23 4 68 68 137 107 115 11 -5 26 -7 34 -4 24 9
65 76 71 115 3 20 10 49 16 65 17 43 31 11 24 -56z m-294 -370 c0 -10 -70 -63
-76 -57 -2 2 2 10 10 16 8 7 12 19 9 27 -3 8 -3 21 1 29 4 12 10 13 31 3 14
-6 25 -14 25 -18z m-1060 -138 c0 -4 -7 -18 -16 -31 -11 -15 -14 -34 -11 -55
5 -32 4 -33 -59 -60 -82 -36 -124 -82 -124 -136 0 -41 -7 -47 -38 -31 -9 5
-28 14 -42 19 -24 11 -21 15 125 156 141 137 165 157 165 138z m-2433 -110 c5
-123 28 -222 68 -301 27 -55 65 -86 125 -104 l40 -12 -39 -55 c-21 -30 -89
-147 -151 -260 -61 -113 -140 -248 -175 -300 -138 -208 -291 -312 -543 -371
-48 -11 -96 -23 -106 -26 -18 -5 -18 -1 -13 71 4 43 9 81 11 85 3 5 8 26 10
47 8 58 69 275 111 389 41 115 132 303 204 423 135 226 267 371 416 458 35 21
40 15 42 -44z m4017 -202 c4 -25 19 -97 34 -160 22 -92 26 -125 19 -165 -4
-27 -5 -113 -1 -190 3 -77 8 -187 9 -245 2 -88 6 -111 24 -140 23 -36 23 -40
5 -190 -5 -45 -3 -58 10 -69 32 -26 11 -89 -43 -128 -16 -13 -32 -23 -34 -23
-8 0 8 241 18 275 4 14 -2 30 -20 50 -18 21 -24 36 -19 50 13 38 7 255 -12
504 -4 41 -7 156 -8 255 -2 219 4 277 18 176z m1186 -526 c1 -3 -25 -28 -57
-56 -32 -28 -148 -137 -258 -243 -179 -173 -250 -240 -334 -313 -14 -13 -59
-48 -99 -79 l-73 -56 -30 31 -30 31 31 16 c54 28 116 88 226 220 98 117 153
166 384 339 80 60 161 124 179 142 l35 34 13 -30 c7 -17 13 -33 13 -36z
m-1001 -386 c5 -14 5 -31 -1 -41 -12 -24 -19 -17 -25 27 -5 41 12 50 26 14z
m17 -197 c15 -58 8 -74 -26 -68 -18 3 -22 84 -7 137 10 32 11 33 15 10 2 -14
10 -49 18 -79z m-127 -324 c-19 -13 -36 -22 -39 -20 -8 7 41 43 58 43 8 0 0
-10 -19 -23z m-174 -185 c-19 -35 -32 -50 -79 -90 -21 -19 -78 -80 -126 -136
-49 -57 -99 -112 -112 -122 -13 -11 -39 -41 -58 -69 -48 -69 -148 -184 -255
-290 -51 -50 -101 -111 -114 -137 -13 -26 -53 -76 -88 -110 -36 -35 -74 -83
-86 -108 -14 -28 -34 -51 -54 -61 -38 -19 -73 -59 -107 -123 -14 -26 -38 -59
-53 -74 -50 -49 -132 -145 -186 -218 -28 -39 -77 -104 -108 -145 -31 -41 -73
-106 -94 -146 -24 -47 -54 -87 -85 -113 -35 -30 -47 -47 -48 -69 -1 -43 -17
-68 -63 -97 -30 -19 -40 -31 -37 -47 1 -12 -14 -51 -34 -87 -20 -36 -46 -90
-58 -119 -11 -30 -47 -93 -80 -140 -61 -90 -120 -199 -120 -224 0 -8 -18 -51
-40 -95 -22 -44 -40 -90 -40 -103 0 -13 -7 -37 -15 -52 -8 -15 -12 -34 -8 -42
3 -10 -1 -15 -11 -15 -10 0 -23 -15 -31 -34 -8 -18 -22 -36 -31 -40 -12 -5
-14 -14 -9 -45 8 -47 -4 -72 -60 -132 -31 -34 -40 -52 -42 -82 -2 -54 -26 -87
-63 -87 -17 0 -30 2 -30 6 0 9 122 308 145 354 12 25 37 88 55 140 17 52 44
119 59 150 15 30 33 78 40 105 7 28 30 81 52 118 21 38 39 72 39 75 0 4 23 45
51 92 28 47 90 164 136 260 67 137 101 195 158 265 40 50 138 180 217 290 197
274 441 581 589 740 31 33 91 100 135 150 81 91 175 185 229 226 17 13 33 29
37 35 4 6 38 49 75 95 85 106 187 209 283 286 42 34 81 67 87 75 7 7 21 14 32
15 20 2 20 0 6 -25z m322 -200 c13 3 15 -6 7 -27 -4 -8 -3 -37 2 -63 4 -26 8
-51 9 -57 1 -5 -5 -22 -12 -37 -24 -49 -30 -177 -13 -263 5 -27 12 -120 14
-205 3 -85 9 -168 13 -185 5 -16 9 -34 8 -40 -1 -5 -5 -39 -9 -74 -10 -76 -10
-118 0 -214 13 -119 10 -198 -9 -246 -10 -24 -19 -65 -20 -92 -1 -27 -3 -49
-4 -49 -2 0 -9 15 -17 34 -9 22 -13 59 -11 107 6 122 16 262 21 294 6 42 6
155 -1 185 -7 35 -15 159 -20 325 -5 167 -15 398 -20 475 -2 40 2 68 17 103
12 28 24 43 28 37 4 -6 12 -10 17 -8z m-367 -62 c-22 -30 -74 -64 -90 -58 -12
4 8 28 50 61 48 37 67 35 40 -3z m228 -33 c7 -15 15 -71 17 -126 1 -54 8 -107
13 -117 7 -14 6 -25 -4 -39 -20 -27 -17 -64 8 -112 21 -39 21 -46 10 -90 -26
-96 -30 -220 -8 -237 13 -10 13 -16 -3 -50 -15 -31 -18 -59 -15 -155 1 -64 6
-152 10 -197 5 -67 3 -85 -10 -106 -18 -27 -10 -66 20 -99 13 -14 12 -19 -7
-42 -26 -34 -22 -59 11 -67 21 -5 25 -12 23 -39 -1 -18 -10 -42 -20 -53 -10
-11 -18 -28 -19 -37 -1 -39 -17 -82 -34 -91 -25 -13 -29 -5 -29 65 0 52 -3 63
-26 83 -15 13 -26 24 -24 25 2 2 16 8 31 14 l26 12 -5 133 c-5 107 -3 140 10
170 15 35 14 37 -2 43 -10 3 -26 14 -36 25 -16 18 -16 19 16 28 42 10 46 31
25 121 -9 36 -19 129 -22 206 -7 188 -7 203 -1 258 4 26 3 57 -2 70 -6 15 -3
29 11 47 24 33 31 69 19 100 -10 25 -23 161 -21 210 3 66 6 80 15 77 5 -2 16
-16 23 -30z m-353 -66 c-42 -83 -379 -452 -438 -481 -15 -7 -35 -31 -44 -52
-9 -21 -21 -38 -26 -38 -4 0 -6 4 -2 9 3 5 1 12 -4 15 -25 16 22 71 263 313
144 145 262 263 264 263 1 0 -4 -13 -13 -29z m176 -138 c2 -49 2 -146 0 -218
-6 -220 -5 -395 4 -510 5 -60 8 -132 7 -160 -1 -27 -3 -172 -5 -321 -3 -176
-8 -283 -17 -308 -15 -48 -9 -65 24 -59 34 7 34 -13 1 -47 -27 -28 -30 -54
-40 -360 -2 -74 -6 -144 -8 -155 -3 -11 -8 -40 -11 -65 -7 -49 -9 -63 -27
-160 -6 -36 -13 -77 -15 -91 -2 -14 -8 -48 -14 -75 -7 -27 -13 -61 -15 -75 -2
-14 -13 -75 -24 -135 -28 -144 -30 -154 -37 -186 l-6 -28 -171 0 c-1378 -3
-1628 0 -1657 17 -32 19 -27 37 15 47 31 8 59 56 83 141 70 255 95 324 162
445 38 69 76 142 86 163 11 22 25 37 36 37 22 0 35 26 33 65 0 17 10 62 22
100 13 39 23 71 23 73 0 1 3 2 8 3 22 3 62 43 62 62 0 12 12 33 26 46 30 29
64 92 64 119 0 11 9 31 20 45 26 33 25 46 -2 40 l-23 -6 22 19 c12 10 40 31
61 46 39 27 167 201 184 249 5 14 20 31 32 37 14 6 31 29 41 56 16 41 75 96
103 96 5 0 13 15 19 34 9 27 8 37 -5 49 -14 14 -12 17 11 22 38 10 93 75 114
135 16 46 24 55 77 83 78 42 162 125 230 228 30 46 98 127 150 179 53 52 96
103 96 112 0 10 7 18 15 18 40 0 136 125 149 193 2 14 7 31 11 37 5 7 57 40
81 50 1 0 3 -39 5 -87z m-161 8 c-12 -17 -23 -31 -25 -31 -7 0 19 55 30 62 19
14 17 -1 -5 -31z m598 -163 c18 -31 19 -37 6 -42 -28 -11 -33 -6 -39 32 -4 20
-9 46 -12 57 -5 18 -3 18 10 5 8 -8 24 -32 35 -52z m-1135 -302 c-25 -43 -87
-111 -166 -181 -49 -44 -110 -109 -135 -145 -25 -36 -57 -81 -71 -100 -27 -37
-54 -101 -45 -109 2 -3 26 1 52 8 94 27 94 27 81 -3 -10 -21 -19 -26 -50 -26
-46 0 -66 -23 -99 -110 -32 -85 -61 -98 -88 -37 -7 16 -18 27 -25 24 -6 -2
-30 -31 -52 -66 -22 -34 -84 -120 -137 -191 -54 -72 -98 -135 -98 -140 0 -11
-81 -72 -87 -66 -10 9 18 44 39 50 15 4 32 26 50 64 15 31 46 80 68 107 48 61
62 81 182 265 98 151 202 293 272 370 96 106 292 300 304 300 8 0 10 -5 5 -14z
m-683 -1001 c-16 -42 -38 -69 -69 -88 -30 -17 -30 -17 -24 0 12 32 47 88 63
100 27 22 41 16 30 -12z m-263 -222 c-6 -33 -20 -52 -40 -53 -7 0 34 89 42 90
2 0 1 -17 -2 -37z m113 -25 c0 -30 -62 -82 -79 -65 -8 8 -2 21 26 49 43 44 53
47 53 16z m-198 -140 c-6 -7 -28 -49 -51 -93 -39 -77 -49 -79 -35 -5 6 30 71
110 89 110 4 0 3 -6 -3 -12z m78 -123 c10 -12 8 -16 -13 -24 -14 -5 -28 -15
-32 -20 -16 -26 -21 -8 -6 24 17 37 32 43 51 20z m-190 -133 c-28 -100 -53
-153 -97 -204 -27 -31 -45 -66 -58 -109 -9 -35 -29 -77 -43 -94 -18 -22 -23
-25 -19 -10 8 28 38 146 42 168 2 9 13 30 23 45 24 34 67 120 98 196 24 59 37
76 61 76 8 0 6 -19 -7 -68z m-250 -510 c0 -24 -42 -151 -80 -239 -43 -102 -44
-103 -78 -103 -30 0 -33 2 -27 23 6 25 116 246 146 296 17 29 39 42 39 23z
m-32 -317 c-11 -24 -27 -34 -29 -17 0 4 -2 15 -4 24 -2 9 4 26 13 39 l15 22 8
-22 c5 -12 4 -32 -3 -46z m-158 -213 c-16 -65 -24 -160 -12 -147 5 6 17 34 27
63 13 40 22 53 41 58 34 9 43 -3 12 -15 -33 -13 -40 -32 -44 -122 -1 -41 -4
-80 -5 -85 -1 -5 1 -17 5 -26 6 -12 -2 -34 -24 -68 -28 -43 -36 -63 -39 -92
-1 -5 -8 -8 -16 -8 -22 0 -38 111 -22 150 6 14 12 70 13 125 1 55 4 111 7 125
3 14 8 42 12 62 5 27 13 38 29 40 28 4 30 -4 16 -60z m91 36 c-13 -10 -27 -18
-32 -18 -13 0 8 37 23 43 26 9 31 -7 9 -25z m1957 23 c31 -1 33 -3 28 -28 -3
-16 -8 -50 -12 -78 -3 -27 -12 -75 -19 -105 -14 -57 -21 -99 -31 -185 -13
-120 -31 -187 -125 -472 -54 -167 -99 -312 -99 -324 0 -40 -58 -194 -105 -279
-41 -73 -207 -326 -224 -340 -3 -3 -20 -23 -36 -45 -39 -52 -179 -193 -230
-232 -22 -17 -65 -43 -95 -59 -30 -15 -81 -45 -112 -65 -119 -76 -281 -103
-396 -65 -29 10 -60 19 -69 20 -9 2 -19 11 -23 21 -3 9 -24 29 -46 44 -24 16
-48 44 -62 74 -12 26 -27 47 -32 47 -13 0 -47 68 -55 112 -5 27 -14 39 -34 48
-36 14 -83 59 -76 71 4 5 0 10 -7 10 -7 1 -18 2 -23 3 -6 0 -21 11 -35 24 -13
12 -28 22 -34 22 -6 0 0 7 13 16 l23 16 -31 15 c-17 9 -31 19 -31 23 0 5 21
16 47 26 45 18 46 18 20 27 -16 5 -29 18 -31 30 -3 12 -19 81 -36 152 -71 298
-84 462 -45 550 12 27 19 70 21 135 4 146 18 259 36 293 6 12 12 60 13 107 2
95 16 149 50 195 12 17 28 53 34 80 19 78 48 113 96 117 31 2 1638 1 1773 -1z
m-2188 -19 c0 -10 -7 -28 -16 -40 -9 -13 -35 -103 -59 -200 -24 -97 -56 -211
-70 -252 -35 -99 -47 -271 -30 -405 9 -72 9 -77 -3 -139 -10 -51 -9 -141 3
-192 4 -20 2 -41 -6 -55 -11 -22 -15 -11 -42 116 -17 77 -30 154 -30 170 -1
94 15 279 33 405 25 167 36 216 84 360 19 58 44 138 56 178 20 69 22 72 50 72
22 0 30 -5 30 -18z m-61 -764 c-17 -31 -19 -143 -3 -169 38 -67 54 -108 54
-146 0 -23 -4 -44 -9 -47 -18 -11 -52 62 -67 144 -7 36 -6 175 1 220 2 14 4
32 4 40 1 12 5 11 16 -4 10 -14 11 -24 4 -38z m2201 -57 c0 -5 -7 -22 -15 -37
l-15 -29 0 31 c0 17 3 34 7 37 9 10 23 9 23 -2z m-2121 -53 c-3 -56 -9 -74
-19 -58 -11 18 2 100 15 100 4 0 5 -19 4 -42z m2088 -40 c-3 -8 -6 -5 -6 6 -1
11 2 17 5 13 3 -3 4 -12 1 -19z m-2167 -370 c0 -6 6 -19 14 -27 19 -23 51
-150 40 -160 -5 -4 -21 -12 -36 -19 l-28 -12 -1 78 c0 42 -2 96 -3 119 -1 23
1 40 6 37 4 -3 8 -10 8 -16z m1850 -510 l35 -21 -32 -9 c-24 -6 -33 -14 -33
-29 0 -11 -10 -39 -21 -62 -78 -152 -266 -327 -353 -327 -20 0 -29 -8 -40 -32
l-14 -33 -1 38 c-1 26 3 37 13 37 8 0 16 3 18 8 2 4 24 18 49 32 59 32 173
157 195 216 9 24 21 44 25 44 5 0 18 18 29 41 12 22 34 54 51 71 16 17 29 35
29 39 0 14 12 11 50 -13z m-617 -590 c-19 -18 -26 -20 -55 -11 l-33 10 45 10
c65 16 67 15 43 -9z"/>
<path d="M1395 21818 l0 -73 365 -5 365 -5 0 -1047 0 -1048 80 0 80 0 0 1038
c-1 570 1 1043 3 1050 3 9 85 12 366 12 l362 0 -1 73 0 72 -810 3 -810 2 0
-72z"/>
<path d="M3349 21883 c0 -11 0 -2193 0 -2220 1 -22 5 -23 80 -23 l80 0 0 533
c0 292 1 542 1 555 l0 22 654 0 653 0 -1 -555 -1 -555 81 0 82 0 0 1125 -1
1125 -78 0 c-56 0 -79 -4 -80 -12 0 -7 -1 -232 -1 -500 l-1 -488 -653 0 -654
0 0 23 c-1 12 -1 237 -1 500 l1 477 -80 0 c-44 0 -80 -3 -81 -7z"/>
<path d="M5619 21873 c0 -10 -1 -516 -2 -1125 l-2 -1108 618 0 617 0 0 70 0
70 -535 0 c-503 0 -535 1 -536 18 0 24 0 913 0 935 1 16 32 17 505 17 l505 0
0 70 0 70 -507 0 -507 0 2 412 c1 227 2 421 2 431 1 16 33 17 536 17 l535 0 0
70 0 70 -615 0 c-579 0 -615 -1 -616 -17z"/>
<path d="M19325 20999 c-33 -4 -80 -10 -105 -13 -25 -3 -70 -10 -100 -16 -30
-6 -66 -14 -80 -16 -50 -10 -198 -54 -286 -85 -300 -105 -536 -239 -1027 -582
-197 -137 -334 -254 -506 -433 -308 -319 -409 -459 -511 -705 -109 -264 -126
-496 -55 -744 43 -150 168 -366 283 -487 108 -115 318 -265 498 -356 83 -42
211 -102 219 -102 2 0 29 -11 59 -25 30 -14 57 -25 60 -25 2 0 33 -13 68 -29
122 -56 395 -160 528 -201 305 -93 396 -122 415 -129 11 -5 70 -28 130 -52
119 -46 314 -138 410 -194 33 -19 67 -37 75 -41 27 -13 224 -146 285 -193 155
-118 299 -301 346 -438 33 -96 33 -247 0 -353 -56 -181 -174 -378 -308 -517
-134 -138 -423 -372 -624 -505 -349 -231 -576 -335 -1034 -478 -33 -10 -186
-46 -232 -55 -15 -2 -39 -7 -53 -10 -291 -61 -530 -49 -789 40 -107 36 -189
85 -263 158 -206 202 -344 521 -355 822 -6 159 9 242 66 360 71 146 186 265
351 364 47 27 95 57 106 65 31 22 35 59 10 100 -60 99 -240 157 -370 119 -116
-34 -358 -231 -477 -388 -39 -52 -41 -58 -25 -67 16 -9 14 -13 -19 -35 -24
-16 -44 -43 -60 -80 -92 -207 -103 -396 -36 -633 116 -412 374 -731 736 -910
166 -82 327 -135 475 -155 25 -4 65 -10 90 -15 44 -8 486 -6 545 3 17 3 59 8
95 11 36 4 76 9 90 10 14 2 52 7 85 11 64 8 76 10 115 19 14 3 41 8 60 10 19
3 87 16 150 31 551 126 1068 365 1498 692 115 89 138 108 273 243 184 182 293
341 348 506 36 107 43 154 42 259 -1 179 -71 340 -240 550 -230 287 -453 456
-878 669 -262 130 -459 209 -883 351 -475 159 -766 267 -891 332 -264 137
-465 360 -545 605 -23 69 -28 105 -30 213 -5 181 18 279 111 470 106 218 199
339 496 640 195 197 293 300 387 404 17 18 33 48 36 66 9 48 41 83 89 96 89
24 179 93 237 182 49 74 173 129 306 136 14 1 21 7 20 18 0 10 15 26 39 40 50
28 239 92 297 99 54 7 107 23 135 41 19 12 96 21 238 27 56 2 169 -29 239 -67
150 -80 252 -232 292 -435 19 -93 26 -315 13 -397 -14 -90 -56 -206 -102 -279
-67 -109 -149 -219 -230 -309 -69 -77 -75 -86 -87 -128 -8 -28 -5 -34 42 -80
150 -147 290 -134 471 44 163 160 271 363 336 627 28 117 39 354 22 468 -15
100 -51 254 -62 266 -5 6 -9 16 -9 24 0 23 -80 183 -127 254 -24 37 -77 98
-118 136 -99 92 -191 137 -355 172 -66 15 -361 21 -445 9z m-1605 -945 c0 -36
-87 -120 -245 -236 -34 -26 -182 -150 -190 -160 -6 -7 -26 -33 -45 -58 -19
-25 -44 -52 -55 -60 -38 -27 -100 -98 -119 -137 -33 -63 -67 -106 -78 -95 -11
11 37 104 103 195 68 95 246 270 414 409 11 9 61 50 110 92 50 41 93 75 98 75
4 1 7 -11 7 -25z m2521 -4085 c15 -28 32 -119 23 -119 -7 0 -49 82 -65 129
l-19 53 22 -14 c12 -8 30 -30 39 -49z m-196 -549 c-44 -75 -147 -195 -158
-184 -6 7 11 71 28 104 7 14 27 41 45 60 17 19 53 67 78 105 l47 70 3 -38 c3
-31 -6 -54 -43 -117z m-3883 -658 c25 -48 50 -109 57 -137 7 -27 15 -56 17
-62 9 -32 -8 -8 -30 40 -13 28 -48 102 -77 162 -68 140 -66 134 -37 107 14
-13 46 -62 70 -110z"/>
<path d="M7862 19573 c-20 -8 -39 -54 -46 -112 -16 -135 -39 -247 -56 -282
-11 -21 -20 -48 -20 -60 0 -11 -6 -47 -14 -78 -8 -31 -17 -78 -21 -106 -7 -60
-12 -93 -25 -160 -5 -27 -12 -72 -15 -98 -4 -27 -8 -59 -11 -70 -2 -12 -15
-81 -29 -152 -13 -72 -28 -151 -34 -175 -5 -25 -12 -58 -15 -75 -29 -166 -37
-208 -41 -215 -6 -9 -20 -82 -30 -150 -9 -66 -36 -160 -46 -160 -5 0 -10 0
-11 -1 -2 0 -39 -9 -83 -20 -44 -11 -89 -22 -100 -25 -37 -9 -89 -14 -213 -18
-119 -5 -126 -7 -188 -41 -36 -19 -79 -35 -96 -35 -56 0 -148 -119 -148 -192
0 -9 12 -30 26 -47 24 -29 55 -42 129 -56 36 -6 210 -7 245 -1 14 3 59 7 100
11 41 3 84 8 95 10 11 2 38 6 60 9 22 3 57 8 79 11 l39 7 -7 -60 c-4 -33 -8
-68 -10 -79 -2 -10 -7 -43 -11 -73 -3 -30 -8 -66 -10 -80 -2 -14 -6 -47 -10
-75 -3 -27 -8 -61 -10 -75 -2 -14 -7 -47 -10 -75 -3 -27 -12 -102 -21 -165 -8
-63 -17 -131 -19 -150 -2 -19 -7 -55 -11 -80 -7 -53 -11 -86 -19 -155 -4 -27
-8 -61 -10 -75 -40 -285 -43 -318 -28 -340 8 -12 10 -20 4 -20 -25 0 -43 -113
-46 -284 -2 -94 -6 -200 -10 -236 -20 -201 -28 -561 -14 -648 5 -37 12 -89 14
-117 11 -136 16 -185 31 -297 8 -67 44 -213 64 -265 50 -132 66 -168 125 -288
35 -71 86 -160 114 -196 84 -110 330 -299 390 -299 9 0 41 -9 71 -21 30 -11
81 -22 113 -24 61 -3 196 26 233 50 11 7 42 57 69 110 36 73 48 108 47 140 0
63 -8 69 -48 44 -65 -40 -113 -59 -184 -74 -105 -22 -162 -5 -268 80 -57 46
-75 67 -97 118 -51 116 -71 172 -74 212 -3 45 -26 95 -42 95 -6 0 -9 6 -6 14
3 8 0 19 -7 25 -9 7 -11 28 -8 65 5 58 -18 147 -46 179 -14 15 -14 23 1 75 14
48 14 59 2 68 -8 6 -10 15 -5 24 4 7 6 23 3 34 -3 12 -7 93 -10 181 -5 201 -5
179 1 320 5 90 3 126 -7 145 -12 22 -11 30 6 65 16 31 21 62 22 135 1 52 6
124 10 160 4 36 9 101 10 145 2 44 8 103 15 130 6 28 13 70 16 95 7 78 14 144
18 170 3 14 7 58 11 99 3 41 8 77 10 81 10 16 18 108 18 215 1 108 3 122 21
136 19 16 20 21 9 62 -11 41 -10 52 12 112 14 36 25 85 24 108 -1 23 3 53 9
68 7 17 7 31 0 43 -15 26 -4 99 19 133 12 15 24 53 27 83 4 30 8 66 11 80 2
14 9 66 15 115 16 133 6 122 120 141 14 3 39 9 55 14 17 5 91 18 165 30 154
24 153 24 240 45 54 13 150 34 288 61 29 6 101 34 127 50 11 6 53 21 93 33 70
21 99 45 73 60 -7 5 -42 0 -79 -11 -37 -10 -76 -20 -87 -22 -11 -3 -60 -14
-110 -26 -49 -12 -101 -24 -115 -26 -13 -3 -56 -12 -95 -20 -38 -9 -81 -18
-95 -20 -14 -2 -47 -9 -73 -14 -58 -12 -57 -12 -57 -2 0 5 28 17 63 27 34 10
102 31 151 47 48 16 118 32 155 35 36 3 83 14 104 25 20 10 37 16 37 13 0 -3
8 -1 18 4 9 5 33 12 53 15 57 9 82 21 125 62 22 22 57 54 77 72 29 27 37 41
37 68 0 53 -36 55 -95 4 -18 -15 -67 -34 -175 -68 -45 -14 -120 -28 -250 -48
-112 -17 -120 -18 -238 -34 -42 -5 -93 -13 -112 -16 -19 -3 -73 -7 -120 -10
-47 -2 -106 -6 -132 -7 -35 -3 -48 0 -49 10 -1 7 -2 19 -3 26 -2 18 28 220 39
257 2 8 7 34 10 58 3 24 25 123 49 220 24 97 46 197 50 221 3 24 21 90 41 147
56 165 138 510 139 584 l1 64 -73 48 c-40 27 -76 57 -79 66 -15 42 -50 63
-169 102 -126 41 -130 42 -152 33z m-72 -2245 c-1 -18 -59 -145 -61 -133 -5
33 12 129 24 137 18 12 37 9 37 -4z m-165 -130 c-3 -24 -9 -51 -12 -61 -4 -16
-1 -18 17 -12 12 4 20 3 18 -1 -3 -5 -12 -26 -21 -46 -9 -21 -24 -53 -32 -70
-16 -36 -35 -143 -30 -170 16 -82 15 -105 -4 -149 -12 -27 -23 -78 -26 -125
-8 -115 -13 -150 -37 -239 -12 -44 -22 -109 -23 -145 0 -36 -9 -91 -19 -123
-17 -56 -15 -105 4 -117 5 -3 11 -18 14 -33 12 -67 32 -57 41 23 3 30 8 66 10
80 2 14 7 50 10 80 3 30 8 66 10 80 2 14 7 57 10 95 3 39 8 84 10 100 2 17 7
62 10 100 3 39 8 84 10 100 3 17 7 53 10 80 22 211 39 303 70 370 17 39 37 81
43 95 17 40 15 -1 -8 -120 -11 -58 -22 -143 -24 -190 -2 -47 -8 -119 -14 -160
-6 -41 -13 -100 -16 -130 -3 -30 -17 -89 -32 -130 -20 -58 -25 -85 -20 -120 9
-63 9 -63 1 -82 -5 -13 -2 -18 9 -18 24 0 37 -35 32 -92 -2 -29 -4 -72 -5 -96
-1 -39 -3 -42 -20 -32 -32 16 -36 13 -50 -42 -20 -86 -19 -103 4 -100 17 2 21
-4 23 -30 l2 -33 -20 24 c-11 13 -24 21 -28 17 -4 -4 -7 -39 -7 -77 -1 -48 -5
-73 -14 -79 -12 -7 -12 -13 -1 -39 10 -25 10 -34 0 -46 -9 -10 -14 -53 -15
-119 -2 -86 -6 -110 -23 -140 -21 -35 -21 -36 -2 -46 10 -5 25 -10 33 -10 17
0 40 -24 31 -32 -3 -4 -17 0 -32 8 -37 19 -42 18 -42 -11 0 -19 -5 -25 -22
-25 -20 0 -21 2 -14 93 3 50 8 99 9 107 11 49 17 96 21 180 6 100 10 130 31
221 8 37 9 62 3 73 -8 15 -14 12 -49 -24 -41 -42 -51 -80 -22 -80 15 0 15 -2
-1 -19 -20 -22 -14 -41 12 -41 11 0 5 -8 -16 -21 -32 -21 -32 -22 -17 -45 9
-14 13 -29 9 -35 -3 -6 -8 -30 -10 -52 -2 -23 -7 -62 -10 -87 -4 -25 -8 -72
-9 -105 -4 -91 -16 -206 -24 -240 -9 -34 -7 -113 3 -197 4 -32 4 -63 -1 -70
-12 -20 -13 -41 -1 -55 6 -7 6 -13 2 -13 -5 0 -15 -9 -22 -20 -10 -16 -8 -26
9 -60 19 -36 22 -60 23 -193 2 -155 19 -313 46 -417 5 -19 11 -51 14 -70 3
-19 8 -54 12 -77 3 -24 3 -50 0 -59 -6 -15 -8 -15 -27 2 -18 16 -20 26 -15 77
6 61 -14 128 -51 169 -9 11 -14 27 -10 44 2 14 -2 49 -9 78 -8 28 -17 87 -20
131 -3 44 -7 90 -9 102 -2 11 4 36 13 55 17 32 17 34 -9 73 -19 29 -26 53 -26
87 0 26 -5 54 -12 62 -7 8 -10 19 -7 24 3 5 8 60 11 123 6 109 22 169 46 169
6 0 4 9 -4 21 -10 13 -13 34 -10 60 4 29 2 40 -10 45 -13 5 -12 13 10 60 28
62 34 146 13 208 -14 44 -8 97 17 147 14 26 17 54 16 122 -2 56 3 103 12 131
8 24 14 63 12 87 -2 24 5 69 16 103 10 34 23 102 27 151 4 50 19 144 34 210
14 66 25 136 26 156 0 20 9 67 20 103 13 39 23 106 25 164 6 116 7 123 36 186
15 34 23 78 27 135 4 79 12 100 35 101 5 0 6 -19 2 -42z m-153 -173 c0 -18 -7
-43 -15 -56 -14 -22 -18 -42 -33 -174 -3 -27 -9 -75 -14 -105 -5 -30 -12 -77
-15 -105 -4 -27 -9 -58 -11 -67 -3 -10 -7 -30 -10 -45 -2 -16 -11 -59 -19 -98
-8 -38 -17 -119 -19 -180 -3 -60 -7 -135 -10 -165 -4 -30 -8 -78 -10 -107 -3
-28 -9 -77 -15 -110 -14 -84 -20 -136 -26 -240 -6 -108 -12 -173 -20 -234 -3
-24 -9 -73 -13 -109 -9 -82 -8 -593 2 -765 8 -140 -1 -165 -14 -38 -12 112
-21 177 -28 187 -5 9 -14 170 -15 291 -1 79 16 309 28 384 3 14 7 101 10 195
5 155 12 264 20 320 5 31 16 117 21 151 2 17 8 62 13 100 11 71 16 110 27 200
3 28 12 77 19 110 8 34 16 85 19 115 3 30 8 64 10 75 10 51 18 133 22 208 4
97 5 102 45 231 25 81 33 97 41 82 5 -10 10 -33 10 -51z m122 -1516 c-7 -14
-19 -31 -27 -38 -13 -10 -14 -1 -12 63 4 99 14 113 35 50 15 -41 15 -53 4 -75z
m-73 -378 l23 -18 -31 -17 c-43 -22 -47 -29 -49 -116 -1 -41 -6 -111 -10 -155
-11 -107 -9 -151 10 -179 14 -22 14 -24 -5 -29 -33 -9 -42 33 -40 193 1 80 3
156 5 170 2 14 6 53 11 88 9 81 38 102 86 63z m14 -623 c-3 -18 -6 -53 -6 -78
-1 -34 -10 -56 -35 -91 -23 -31 -31 -52 -27 -67 3 -12 8 -22 11 -22 14 0 42
35 42 54 1 38 18 -6 22 -54 2 -37 0 -45 -16 -48 -16 -3 -18 0 -12 25 6 22 0
17 -29 -24 -19 -29 -37 -53 -38 -53 -1 0 -3 17 -4 38 -1 20 -5 90 -9 155 l-7
119 22 -13 c17 -12 23 -11 36 1 8 8 16 25 18 37 3 19 24 53 33 53 2 0 1 -15
-1 -32z m-261 -262 c9 -30 16 -65 16 -78 l-1 -23 -19 24 c-15 17 -20 38 -20
77 0 30 2 54 4 54 3 0 12 -24 20 -54z m327 -207 c-8 -31 -4 -66 14 -110 11
-29 15 -53 10 -65 -6 -15 -8 -16 -12 -4 -3 8 -18 29 -34 45 -17 18 -27 39 -25
50 2 11 7 39 11 63 5 33 11 42 23 39 10 -2 15 -10 13 -18z"/>
<path d="M27974 19531 c-33 -16 -86 -36 -117 -45 -99 -29 -168 -77 -272 -188
-33 -36 -241 -389 -297 -506 -84 -174 -114 -298 -124 -512 -6 -119 -7 -127
-37 -170 -40 -59 -194 -265 -210 -282 -7 -7 -30 -34 -51 -61 -67 -82 -29 -65
58 26 46 48 92 87 102 87 12 0 -2 -20 -46 -64 -35 -35 -68 -73 -74 -83 -5 -10
-19 -25 -31 -35 -11 -9 -52 -47 -90 -85 -99 -96 -141 -132 -215 -184 -36 -25
-107 -78 -158 -117 -86 -65 -95 -70 -118 -60 -28 13 -93 131 -101 183 -2 16
-11 55 -18 85 -26 102 -44 204 -50 285 -12 155 -27 213 -94 359 -23 48 -41 96
-41 106 0 9 -11 29 -25 44 -13 14 -30 44 -36 66 -7 22 -14 40 -15 40 -2 0 -19
-8 -38 -17 -36 -17 -42 -16 -158 13 -5 1 -14 2 -20 3 -7 1 5 9 26 19 l39 18
-24 16 c-57 37 -225 25 -320 -23 -33 -16 -47 -30 -118 -114 -58 -69 -238 -364
-304 -497 -39 -81 -75 -147 -78 -148 -4 0 -6 19 -4 43 4 49 18 367 18 382 -1
6 -4 70 -8 144 l-6 134 -42 39 c-96 90 -181 127 -282 122 -87 -3 -99 -21 -92
-137 4 -72 8 -92 26 -111 12 -13 24 -35 27 -50 5 -30 15 -19 -186 -199 -74
-67 -180 -165 -235 -218 -110 -107 -125 -121 -246 -229 -46 -41 -144 -136
-219 -210 -149 -149 -188 -185 -270 -249 -59 -47 -187 -111 -222 -111 -30 0
-102 44 -122 74 -94 144 -134 298 -122 465 15 197 9 247 -38 312 -52 70 -113
93 -187 68 -32 -11 -56 -26 -153 -92 -21 -15 -42 -27 -46 -27 -4 0 6 38 22 85
39 113 43 183 15 263 -62 176 -189 240 -487 247 -73 2 -107 -2 -148 -17 -147
-54 -326 -222 -424 -398 -14 -25 -63 -108 -109 -185 -152 -252 -259 -500 -290
-671 -10 -58 -18 -108 -17 -112 2 -8 -7 -58 -29 -160 -28 -135 -19 -230 33
-337 43 -89 98 -139 199 -181 62 -26 108 -38 150 -40 33 -2 96 -5 140 -7 242
-12 420 92 734 428 46 50 92 107 102 127 10 20 27 39 37 42 19 6 22 11 62 104
13 28 27 52 30 52 4 0 25 -20 46 -45 112 -130 239 -245 332 -300 10 -5 34 -20
55 -33 59 -37 143 -40 260 -8 106 29 206 71 270 113 23 16 58 36 77 45 19 8
62 39 95 67 33 29 84 72 113 97 29 25 71 72 93 105 22 33 65 86 94 117 51 54
63 83 27 63 -9 -5 -45 -32 -79 -59 -54 -44 -62 -48 -66 -31 -3 12 0 19 8 19 8
0 27 11 42 25 l28 25 -27 -6 c-33 -7 -36 6 -7 32 12 10 30 36 40 57 11 20 23
37 27 37 4 0 30 21 57 45 28 25 82 73 121 106 67 56 84 80 84 119 -1 11 -5 10
-18 -5 -9 -11 -37 -36 -62 -54 -25 -19 -64 -52 -88 -73 -23 -21 -72 -53 -108
-70 -43 -20 -63 -36 -60 -44 4 -10 -3 -14 -22 -14 -15 0 -43 -13 -62 -28 -43
-35 -76 -53 -83 -46 -3 4 13 21 36 38 23 18 78 70 122 115 44 46 113 107 153
138 40 30 88 71 108 91 124 129 139 143 158 140 45 -6 33 -67 -24 -125 -46
-46 -46 -70 -2 -51 45 20 74 46 125 114 26 35 51 64 55 64 4 0 29 20 57 45 42
38 51 42 56 27 4 -9 5 -19 4 -22 -2 -3 -6 -54 -10 -113 -3 -60 -8 -118 -10
-130 -2 -12 -6 -53 -10 -90 -3 -37 -8 -76 -10 -85 -14 -78 -20 -213 -19 -482
1 -302 2 -317 22 -357 25 -48 79 -93 112 -93 17 0 21 4 15 18 -16 41 -17 69
-2 75 17 6 31 -24 42 -85 6 -41 21 -50 85 -53 68 -4 96 16 132 93 18 37 33 69
33 72 5 34 18 60 32 60 9 0 35 19 57 43 31 32 46 59 59 107 10 35 38 118 63
184 41 110 44 122 29 133 -10 6 -14 16 -11 22 4 6 2 19 -4 30 -7 15 -7 22 3
28 24 14 47 57 47 86 0 15 4 26 9 22 6 -3 13 1 18 8 4 8 18 20 31 26 19 10 22
18 17 40 -6 29 31 111 80 180 14 19 25 46 25 61 0 18 14 41 44 72 31 33 47 61
57 97 10 41 20 55 46 71 40 24 69 68 77 121 l6 40 34 -26 c18 -13 33 -30 33
-37 0 -7 3 -40 7 -73 29 -265 57 -379 144 -575 57 -130 100 -198 163 -260 71
-70 222 -161 289 -174 52 -10 61 -9 175 30 136 47 224 86 275 123 55 39 181
169 236 243 137 186 187 262 205 311 7 20 18 37 25 37 16 0 25 25 13 37 -6 6
-4 14 5 23 14 11 20 3 44 -51 67 -148 318 -324 522 -366 99 -20 374 -25 455
-8 80 17 274 99 337 143 28 19 83 43 122 54 137 38 182 68 367 242 94 88 191
177 215 196 23 19 80 78 126 130 46 52 95 109 110 125 63 71 98 122 98 143 0
21 -2 22 -21 9 -11 -8 -71 -64 -133 -125 -111 -109 -167 -152 -196 -152 -10 0
-4 11 16 29 l32 29 -57 6 c-31 4 -62 11 -70 16 -17 10 -18 8 73 115 38 45 34
59 -11 35 -31 -16 -40 -18 -51 -7 -10 11 -10 18 2 42 23 44 7 50 -33 13 -36
-34 -242 -208 -310 -262 -20 -15 -56 -37 -81 -48 -25 -11 -108 -62 -185 -113
-226 -150 -382 -223 -534 -250 -14 -2 -71 -14 -126 -26 -120 -25 -143 -25
-189 -4 -38 18 -115 123 -99 134 68 46 174 136 192 163 13 19 71 70 130 114
82 62 107 86 109 106 2 19 18 38 54 64 32 22 47 39 39 43 -12 8 7 28 74 76 51
36 63 51 75 95 6 23 23 46 48 65 48 36 275 372 311 459 36 89 33 148 -12 238
-19 40 -48 85 -64 100 -74 70 -438 218 -538 218 -23 0 -65 -12 -101 -29z m320
-262 c10 -16 18 -42 18 -57 1 -39 -62 -170 -121 -249 -110 -150 -210 -275
-223 -281 -5 -2 -8 -12 -8 -23 0 -11 -10 -23 -22 -28 -31 -12 -60 -41 -99 -97
l-31 -46 33 7 34 7 -56 -57 c-31 -32 -66 -58 -77 -59 -18 -1 -45 -22 -149
-119 l-31 -29 4 48 c8 109 16 143 74 324 15 49 83 216 106 261 30 61 91 137
194 240 65 66 103 95 160 123 41 20 90 45 108 55 41 23 64 18 86 -20z m156
-76 c17 -27 16 -31 -17 -123 -19 -52 -38 -99 -42 -103 -14 -14 -29 45 -25 103
2 52 24 120 46 148 12 14 15 13 38 -25z m-333 -442 c-13 -14 -53 -57 -88 -96
-101 -110 -120 -128 -125 -122 -10 10 43 82 101 136 33 31 73 70 90 88 16 17
33 29 38 26 5 -3 -2 -17 -16 -32z m1018 -493 c-21 -18 -56 -46 -78 -62 -33
-25 -38 -26 -28 -9 22 42 93 103 120 103 25 0 24 -1 -14 -32z m-3741 -16 c-14
-20 -30 -36 -36 -34 -29 8 -72 -65 -59 -101 6 -14 6 -29 0 -38 -5 -8 -9 -11
-9 -7 0 4 -13 2 -29 -3 -21 -7 -37 -25 -51 -55 -12 -24 -27 -44 -32 -44 -6 0
-4 -8 6 -19 16 -17 14 -20 -25 -55 -22 -21 -43 -36 -45 -33 -2 2 1 18 7 35 21
60 3 54 -31 -9 -23 -43 -36 -58 -38 -46 -2 10 1 23 6 30 5 7 32 55 60 108 70
133 157 266 184 280 26 14 62 24 94 27 l23 2 -25 -38z m-3203 -154 c1 -99 23
-218 54 -291 33 -80 124 -148 172 -130 13 5 13 3 4 -15 -6 -11 -17 -26 -24
-34 -17 -17 -111 -176 -177 -303 -185 -350 -306 -490 -503 -580 -54 -25 -318
-97 -326 -90 -7 8 21 184 45 284 70 287 200 589 356 822 46 68 92 133 103 145
11 11 34 36 51 55 77 85 195 176 232 178 8 1 12 -14 13 -41z m2369 2 c0 -37
-3 -41 -42 -61 -63 -31 -100 -75 -103 -121 -1 -22 -5 -41 -7 -43 -2 -3 -26 4
-53 14 l-49 19 118 116 c65 64 122 116 127 116 5 0 9 -18 9 -40z m842 -96 c8
-18 9 -27 1 -32 -6 -4 -14 -18 -18 -32 -8 -27 -82 -104 -88 -92 -17 32 -15 43
13 57 26 14 28 18 19 41 -10 27 -2 44 31 71 22 18 29 16 42 -13z m1778 -17 c0
-13 -8 -32 -19 -43 -10 -11 -24 -30 -30 -42 -12 -23 -31 -30 -31 -12 0 10 70
120 76 120 2 0 4 -10 4 -23z"/>
<path d="M29915 19084 c-44 -41 -75 -74 -69 -74 6 0 19 9 29 20 10 11 21 18
23 15 3 -3 -5 -16 -18 -30 -22 -23 -22 -26 -6 -44 16 -17 15 -19 -31 -32 -26
-7 -51 -14 -55 -14 -15 0 -10 -19 6 -25 13 -4 12 -11 -10 -47 -21 -36 -28 -41
-47 -35 -12 5 -29 8 -37 8 -27 -2 -157 -119 -176 -161 -27 -56 -86 -128 -172
-211 l-75 -72 40 -6 c39 -7 40 -7 132 87 51 52 100 105 108 117 l16 22 18 -30
c11 -16 17 -36 13 -45 -3 -8 -32 -36 -64 -61 -32 -25 -80 -68 -106 -94 -63
-63 -98 -85 -123 -77 -25 8 -30 -3 -19 -42 7 -26 15 -33 43 -39 31 -5 41 -1
81 31 25 21 64 61 85 89 76 98 83 105 111 117 15 6 28 18 28 26 0 25 30 68 66
92 27 19 32 27 23 38 -13 15 2 63 20 63 7 0 7 9 2 23 -7 18 -1 31 41 75 39 41
47 56 39 66 -9 11 6 30 72 90 47 42 96 93 111 114 l27 39 -24 41 -23 40 -79
-74z"/>
<path d="M29395 18583 c-152 -128 -166 -141 -157 -147 12 -7 211 142 241 180
21 27 27 45 14 43 -5 0 -48 -34 -98 -76z"/>
<path d="M5147 18404 c-1 -1 -42 -5 -92 -8 -49 -4 -97 -9 -105 -11 -8 -2 -35
-7 -60 -10 -25 -3 -52 -8 -60 -10 -8 -2 -29 -7 -46 -9 -163 -28 -443 -125
-629 -218 -234 -118 -731 -441 -940 -612 -216 -176 -534 -517 -667 -714 -81
-120 -194 -376 -214 -485 -49 -271 -22 -478 93 -712 132 -269 359 -479 719
-668 81 -42 559 -246 707 -301 105 -39 206 -72 405 -130 361 -106 680 -252
967 -441 228 -151 339 -257 439 -418 62 -100 87 -182 89 -287 2 -105 -6 -151
-43 -253 -62 -168 -165 -330 -295 -462 -311 -317 -754 -624 -1162 -807 -146
-66 -479 -179 -596 -202 -12 -3 -66 -14 -121 -25 -54 -12 -117 -23 -140 -26
-22 -3 -52 -7 -66 -10 -123 -24 -307 -20 -455 11 -77 16 -245 69 -287 90 -146
75 -282 228 -381 429 -53 107 -107 261 -121 347 -3 18 -8 47 -12 63 -11 60
-10 191 3 273 24 151 91 279 207 396 77 78 125 115 226 172 84 48 110 72 110
102 0 60 -85 135 -188 165 -68 21 -185 17 -232 -8 -148 -76 -337 -237 -442
-377 -43 -56 -45 -65 -20 -70 13 -2 8 -9 -19 -26 -44 -27 -83 -101 -115 -217
-42 -152 -38 -319 12 -497 151 -538 535 -910 1074 -1042 104 -25 120 -28 235
-42 112 -15 458 -8 622 11 144 17 212 26 238 31 11 2 72 13 135 24 506 90
1015 299 1470 602 74 50 137 94 140 97 3 4 25 22 50 41 25 19 47 37 50 40 3 3
32 27 65 55 236 196 433 459 492 659 25 83 25 87 29 206 3 129 -12 202 -63
313 -126 267 -469 615 -778 787 -167 94 -224 124 -325 172 -63 31 -164 77
-225 102 -60 26 -119 51 -130 56 -56 25 -329 120 -535 185 -63 20 -149 49
-190 65 -41 17 -158 60 -260 96 -382 136 -518 211 -685 377 -318 316 -365 691
-139 1114 102 192 222 341 474 593 107 107 222 224 254 260 33 36 83 90 112
120 34 35 54 66 57 86 8 51 35 83 81 95 93 25 153 72 272 216 38 45 143 90
234 100 49 5 59 9 64 27 3 13 22 30 43 40 57 28 233 87 273 92 62 8 124 25
147 40 48 31 270 39 359 14 70 -20 185 -78 226 -114 77 -68 162 -221 184 -331
2 -11 9 -43 14 -72 13 -61 18 -275 8 -353 -18 -144 -81 -276 -220 -463 -52
-70 -76 -98 -146 -174 -34 -37 -50 -65 -56 -95 -4 -23 4 -36 41 -73 65 -66
122 -96 192 -102 92 -9 167 31 285 149 105 106 155 175 220 306 100 199 140
371 140 612 0 227 -35 390 -124 575 -147 303 -345 439 -670 461 -88 6 -200 10
-203 8z m-1731 -961 c-8 -45 -27 -63 -211 -205 -147 -115 -221 -183 -270 -248
-18 -25 -51 -58 -73 -75 -35 -26 -122 -140 -122 -160 0 -4 -10 -20 -21 -37
-37 -51 -44 -17 -11 48 65 128 193 278 362 425 92 80 344 289 349 289 2 0 0
-17 -3 -37z m2508 -4055 c22 -30 52 -138 37 -138 -10 0 -42 61 -62 118 -20 59
-11 67 25 20z m-175 -565 c-23 -42 -71 -106 -105 -142 l-64 -66 6 40 c6 45 38
103 85 155 17 19 50 64 73 99 l41 64 3 -37 c2 -28 -7 -54 -39 -113z m-3901
-642 c41 -75 82 -182 81 -214 0 -21 -1 -21 -11 3 -7 14 -44 92 -85 174 -56
116 -67 144 -47 125 14 -13 42 -53 62 -88z"/>
<path d="M25935 14084 c-11 -2 -45 -9 -75 -15 -298 -57 -534 -249 -662 -539
-42 -96 -83 -242 -94 -336 -3 -33 -8 -68 -11 -79 -5 -25 -5 -321 1 -355 2 -14
7 -50 10 -80 24 -200 105 -402 218 -548 148 -191 328 -296 583 -340 51 -9 316
-9 375 0 446 67 749 413 808 923 9 77 9 362 0 440 -23 204 -85 381 -183 530
-143 215 -347 347 -608 392 -39 6 -334 12 -362 7z m332 -160 c198 -35 331
-109 448 -251 53 -64 135 -213 135 -244 0 -8 4 -19 9 -25 13 -13 51 -194 59
-279 8 -89 7 -322 -2 -400 -19 -159 -74 -329 -145 -449 -48 -80 -161 -192
-241 -239 -71 -41 -202 -85 -283 -95 -70 -9 -250 -8 -314 1 -29 4 -87 18 -130
32 -255 80 -428 286 -504 600 -50 209 -47 555 7 755 72 267 228 458 444 546
141 57 351 77 517 48z"/>
<path d="M22489 14043 c0 -21 0 -2152 0 -2200 l1 -33 76 0 75 0 -3 1039 c-2
572 -2 1039 -2 1038 2 -2 82 -201 371 -917 75 -184 203 -501 285 -705 82 -203
157 -389 165 -413 l15 -43 55 3 54 3 140 345 c77 190 144 354 149 365 5 11 65
160 134 330 68 171 143 355 166 410 22 55 84 208 137 340 93 230 135 321 118
250 -4 -16 -10 -483 -12 -1037 l-4 -1008 80 0 c45 0 81 3 82 8 0 9 0 2167 0
2210 l-1 32 -119 0 -119 0 -47 -117 c-26 -65 -53 -131 -60 -148 -7 -16 -35
-84 -60 -150 -26 -66 -53 -133 -61 -150 -15 -34 -239 -591 -259 -645 -8 -19
-64 -159 -125 -310 -61 -151 -128 -316 -148 -367 -20 -51 -40 -89 -43 -85 -3
4 -64 151 -134 327 -296 739 -566 1411 -574 1430 -5 11 -27 63 -49 115 l-39
95 -122 3 c-110 2 -121 1 -122 -15z"/>
<path d="M27619 14058 c-1 -4 -1 -2208 0 -2230 1 -16 12 -18 77 -18 l75 0 -3
1039 c-2 572 -2 1039 -2 1038 1 -1 16 -38 34 -82 18 -44 38 -93 45 -110 7 -16
40 -97 73 -180 47 -119 326 -814 361 -900 5 -11 13 -31 20 -45 6 -14 65 -160
131 -325 66 -165 133 -331 148 -368 l27 -68 53 3 53 3 29 70 c29 71 205 504
590 1455 116 289 217 530 222 535 7 7 8 2 3 -15 -5 -14 -10 -481 -12 -1037
l-5 -1013 81 0 c70 0 81 2 82 18 1 22 1 2214 0 2225 -1 4 -54 7 -120 7 l-119
0 -77 -192 c-43 -106 -86 -212 -96 -235 -11 -23 -19 -45 -19 -48 0 -4 -6 -21
-14 -38 -8 -18 -126 -309 -261 -647 -136 -338 -254 -631 -262 -650 -8 -19 -19
-44 -23 -55 -48 -123 -48 -122 -58 -95 -23 61 -444 1107 -452 1125 -22 46
-313 773 -321 803 l-10 32 -124 0 c-69 0 -125 -1 -126 -2z"/>
<path d="M13931 11909 c-6 -18 -11 -41 -11 -53 0 -12 -11 -41 -25 -65 -24 -42
-32 -71 -18 -71 4 0 21 5 39 12 24 9 35 20 41 42 4 17 8 34 9 39 1 4 2 19 3
34 1 36 9 25 16 -23 3 -21 8 -49 10 -61 3 -12 7 -55 10 -95 3 -40 8 -83 10
-95 3 -13 3 -23 0 -23 -13 0 -45 68 -45 95 0 53 -14 60 -45 23 -47 -56 -50
-71 -25 -122 24 -51 50 -60 67 -23 11 22 11 22 23 -8 18 -46 19 -57 4 -94 -10
-23 -14 -68 -12 -135 1 -66 -3 -109 -11 -125 -9 -16 -10 -26 -2 -34 10 -10
116 -11 133 -1 5 3 6 22 2 42 -3 21 -6 43 -7 50 -1 21 -15 13 -21 -12 -6 -25
-36 -44 -36 -23 0 7 15 39 34 70 29 47 32 57 18 58 -9 0 -2 5 16 10 30 9 33
13 28 42 -7 49 -9 180 -2 197 3 8 7 24 9 35 2 11 10 34 17 50 19 45 23 113 11
179 -6 33 -13 62 -16 64 -3 3 -19 -4 -35 -17 l-30 -22 0 46 c0 53 -8 55 -65
20 -50 -30 -51 -30 -59 0 -9 34 -22 31 -35 -6z"/>
<path d="M13930 11463 c0 -10 -15 -40 -34 -68 -35 -51 -37 -71 -8 -77 14 -3
12 -9 -13 -34 -28 -28 -30 -35 -27 -90 2 -32 10 -70 18 -85 7 -15 10 -30 6
-34 -4 -3 9 -5 28 -3 32 3 34 5 36 43 6 106 15 205 24 234 5 17 7 31 5 31 -3
0 0 12 6 27 14 37 4 73 -21 73 -12 0 -20 -7 -20 -17z"/>
<path d="M14032 11096 c-24 -6 -48 -18 -53 -27 -5 -9 -12 -54 -15 -100 -4 -46
-13 -97 -21 -112 -7 -15 -11 -32 -7 -38 15 -25 5 -90 -17 -107 l-21 -18 27
-18 c25 -16 26 -20 12 -28 -26 -14 -20 -23 16 -24 17 0 43 -2 57 -5 21 -3 26
1 37 32 6 20 14 64 18 99 3 35 13 76 21 91 8 16 14 44 14 64 l0 36 -55 -6
c-30 -4 -55 -5 -55 -3 0 11 96 108 107 108 16 0 22 22 12 48 -9 24 -15 25 -77
8z"/>
<path d="M13872 10881 c-14 -8 -16 -29 -13 -105 1 -48 9 -42 49 47 l31 67 -27
0 c-15 0 -33 -4 -40 -9z"/>
<path d="M13718 10033 c-18 -4 -42 -59 -29 -67 4 -3 29 11 56 30 27 18 42 34
34 35 -8 0 -21 2 -29 3 -8 1 -23 1 -32 -1z"/>
<path d="M13662 9793 c-35 -158 -36 -170 -14 -175 31 -8 39 2 57 71 29 111 25
201 -8 201 -9 0 -21 -32 -35 -97z"/>
<path d="M13183 8335 c-40 -19 -73 -36 -73 -38 0 -2 24 -2 53 0 63 5 107 21
107 39 0 8 0 17 1 21 1 16 -19 11 -88 -22z"/>
</g>
</svg>
