<svg xmlns="http://www.w3.org/2000/svg" viewBox="0 0 605.15 199.24">
  <defs>
    <style>
      .cls-1{fill:#f06}
    </style>
  </defs>
      <path d="M10.26 43.58a4.08 4.08 0 0 1 .42 1.42 19 19 0 0 0 .41 1.94 17.29 17.29 0 0 0 .4 1.84c.18.76.51 3.19.57 3.95s0 1.54.08 2.31.06 1.44.12 2.16l-.06.8a4.49 4.49 0 0 0 0 1.79 6.48 6.48 0 0 1 .1 2.64 3.51 3.51 0 0 1-.42.76c-.22.3-.68.54-.71.92a.13.13 0 0 1-.11.11.94.94 0 0 0-.77.26c-.32-.12-.72.2-1.1 0a2.87 2.87 0 0 0-1-.31 1.17 1.17 0 0 1-1-.92 42 42 0 0 1-.82-4.7C6 57.57 6 56.66 5.7 55.81a3.26 3.26 0 0 1-.12-.76c-.1-1.14-.46-3.91-.58-5.05-.23-2-.46-4-.81-6l-.72-5.2c-.3-2.19-.37-4.4-.62-6.59-.07-.91-.21-1.82-.29-2.77a2.59 2.59 0 0 0-.18-.66c-.15-.37-.1-.52.31-.7a5 5 0 0 1 2.41-.25 5.14 5.14 0 0 1 2.46 1 2.91 2.91 0 0 1 1 1.51 6.42 6.42 0 0 1 .13 1.48 2.92 2.92 0 0 0 .18 1.43c.18.66.12 1.39.29 2.05a21.68 21.68 0 0 0 .48 2.75.66.66 0 0 1 0 .48 3.71 3.71 0 0 0 .1 1.15 11.69 11.69 0 0 1 .36 2.09zm20.29-5.04c1.09-2.16 1.81-4.44 3-6.66a49.54 49.54 0 0 1 2.85-5.15 2.59 2.59 0 0 1 1.79-1.12 3.17 3.17 0 0 0 1-.27 2.07 2.07 0 0 1 2.24.63 7.74 7.74 0 0 1 1 5.11 13.1 13.1 0 0 0 0 2.17c.1 1.2.08 2.4.18 3.65a11.24 11.24 0 0 0 .23 2 17 17 0 0 1 .15 2.5c.05 1.29.1 2.64.09 4a25.73 25.73 0 0 1 0 3 7.85 7.85 0 0 0 0 2.69 16.92 16.92 0 0 1 .14 3.12l.13 1.48c.12.67-.13 1.36 0 2 0 .14-.1.25-.27.4-.52.34-1 .76-.93 1.29 0 .19-.16.25-.4.22a3.41 3.41 0 0 1-1.24-.23 3.14 3.14 0 0 0-1-.54.36.36 0 0 1-.22-.37 5.37 5.37 0 0 0-.3-2.19 11.53 11.53 0 0 1-.4-2.52c-.12-1.43-.3-2.86-.37-4.35-.11-2-.16-4-.21-6s-.07-3.8.07-5.69c.05-1.55 0-3 0-4.53 0-.77.18-1.51.11-2.27 0-.15 0-.29-.09-.43-.29.17-.34.37-.5.57a24.92 24.92 0 0 0-1.25 2.47c-.77 1.66-1.48 3.31-2.38 5a18.44 18.44 0 0 1-2.2 3.41 1.91 1.91 0 0 1-.8.65l-.63.39a1.06 1.06 0 0 1-1.54.03 7.31 7.31 0 0 1-2.37-2.21c-.43-.78-1.16-1.44-1.65-2.22a44 44 0 0 1-3.49-6.83c0-.1 0-.19-.21-.27A.57.57 0 0 0 21 32a25.94 25.94 0 0 1 .25 3.06 21.88 21.88 0 0 0 .36 2.76c.1.52-.15 1.08 0 1.65.35 1.36 0 2.84.29 4.21a36.85 36.85 0 0 1 .25 3.69 6.32 6.32 0 0 0 .15 1.05 5 5 0 0 1 .18 2.1c-.26 2 .15 3.94 0 5.92 0 .54.09 1.06.07 1.54A6.89 6.89 0 0 1 22 60.7c0 .25-.21.41-.5.57s-.76.36-1.16.63a1.31 1.31 0 0 1-1 .08c-.37-.11-.73 0-1-.15a3.19 3.19 0 0 1-1.65-.78c-.06 0-.07-.19-.08-.28a46 46 0 0 0-.42-5c-.14-1.67-.22-3.35-.37-5-.1-1.25-.26-2.44-.36-3.64a9.83 9.83 0 0 1-.08-2.3 13.41 13.41 0 0 0-.08-1.68c-.08-1 .08-1.93.06-2.9s-.22-2-.31-3a30.69 30.69 0 0 1-.28-4.07c0-.91-.16-1.86-.12-2.78l.14-2c0-.39.76-1 1.3-1.12l2.52-.41a1.61 1.61 0 0 0 .48-.08 2.7 2.7 0 0 1 2.58.36 16.77 16.77 0 0 1 2 2 22.35 22.35 0 0 1 3.32 5.4l1.78 3.18a15.8 15.8 0 0 0 1.21 2zM50.34 24a18 18 0 0 1 3.2-.18 5 5 0 0 1 .86 0 5.28 5.28 0 0 1 1.54.25c.94.31 1.91.37 2.79.73a13.39 13.39 0 0 1 3.57 2 10.73 10.73 0 0 1 4.34 9.61 10.08 10.08 0 0 1-5.12 7.7 4.61 4.61 0 0 1-1.94.79 2.79 2.79 0 0 0-.53.24 8.41 8.41 0 0 1-1.89.64 1.87 1.87 0 0 0-.71.21 5.6 5.6 0 0 1-2.32.63c-.3 0-.42.08-.45.37.13 1.58-.16 3.15.09 4.72a10.4 10.4 0 0 0 .29 1.9c.14.27 0 .62 0 .91l-.13 3.43a1.91 1.91 0 0 1-.63 1.21 1.14 1.14 0 0 1-.89.32c-.24 0-.47.18-.78 0a1.48 1.48 0 0 0-1 0A1.25 1.25 0 0 1 49 58.9a.47.47 0 0 1-.16-.47.75.75 0 0 0-.06-.62 2.14 2.14 0 0 1-.14-1.05 11.2 11.2 0 0 0-.39-2.42 14 14 0 0 1-.2-1.57 52.21 52.21 0 0 1-.62-5.2l-.5-5.93a14.2 14.2 0 0 0-.26-2.34 23.08 23.08 0 0 1-.18-2.88c-.08-1-.23-2-.31-2.91-.18-1.43-.18-2.88-.18-4.32 0-1.2-.14-2.4-.24-3.59-.12-.67.11-.83.94-1.05a8.48 8.48 0 0 1 1.8-.25 13.21 13.21 0 0 0 1.84-.3zm3 20.12c.08.33.21.42.64.38a2.08 2.08 0 0 0 .53-.14l1.72-.53a13.48 13.48 0 0 0 2.35-.87c3.38-1.73 4.7-4.06 4.85-6.63a11.38 11.38 0 0 0-.83-4.84l-.6-1.34a8.46 8.46 0 0 0-1.18-1.78 9.29 9.29 0 0 0-3-1.82 2.4 2.4 0 0 0-1.78-.24 2 2 0 0 1-.55 0 7.09 7.09 0 0 0-2.68-.06 2.34 2.34 0 0 0-.77.26.33.33 0 0 0-.27.31v.87a13 13 0 0 0 .06 2.16 33 33 0 0 0 .29 3.44l.45 2.71c.17 1.33.22 2.67.46 4a14.24 14.24 0 0 1 .14 1.73 5.7 5.7 0 0 1 .06 1.43zM81 34.8c1.14-.19 2.28-.33 3.42-.48a1 1 0 0 1 1.13 1.16c0 .09-.11.15-.22.21a6.85 6.85 0 0 1-1 .37c-1.12.39-2.1.95-3.22 1.34l-.84.21c-.72.06-1.44.17-2.16.28h-.3c-.54.09-.65.2-.62.63v3.75a14.87 14.87 0 0 1 0 2.31 22.88 22.88 0 0 0 .3 2.87v1.83c.07.86.26 1.76.34 2.62a6.87 6.87 0 0 1-.12 2.22 1.93 1.93 0 0 0 0 .78c0 .29.15.37.45.3l1.66-.43c1.54-.47 3-.93 4.63-1.31.6-.14 1.2-.2 1.86-.3a15.88 15.88 0 0 0 2.16-.33c.89-.22 1.62.44 1.43 1.14a1.17 1.17 0 0 1-1 .61 20.55 20.55 0 0 0-2.87.58c-1.25.3-2.49.69-3.73 1.09-1.54.51-3.07 1.08-4.68 1.5a11.46 11.46 0 0 0-1.63.77 7.71 7.71 0 0 1-2 .5 1.77 1.77 0 0 1-.74-.13 2.82 2.82 0 0 1-1.65-2.32c-.13-.85-.15-1.72-.22-2.58-.14-1.63-.46-3.24-.65-4.86a44.48 44.48 0 0 1-.61-5c0-2.26-.38-4.54-.39-6.81l-.08-4.52v-3.47l.13-3.47c.07-.69-.11-1.3 0-1.93 0-.2-.09-.38-.11-.57-.15-.42 0-.67.48-.76a6.38 6.38 0 0 1 3 0 5.45 5.45 0 0 0 1.35.18c1.16 0 2.31 0 3.46-.05s2.43-.06 3.69-.22l2.53-.21a3.38 3.38 0 0 1 1.55.35.53.53 0 0 1 .36.64c0 .15 0 .2-.22.21-1 .28-2 .56-3.1.75-1.8.25-3.56.3-5.37.5-.54 0-.71.2-.67.63a14.24 14.24 0 0 1 .14 1.73 2.35 2.35 0 0 1 0 1.15 1.3 1.3 0 0 0 0 .48 41.57 41.57 0 0 1 .28 4.7 7.81 7.81 0 0 0 0 1.74.56.56 0 0 0 .15.37c1.28-.2 2.47-.5 3.7-.75zm10.09 12.69c-.08-2.45-.29-4.89-.5-7.33a7.89 7.89 0 0 0-.08-1.68 10.85 10.85 0 0 1-.32-3c0-2-.33-4-.32-5.95a14.9 14.9 0 0 0 .13-1.84c-.08-1 0-1.92-.12-2.88a11.41 11.41 0 0 1 .25-4.31c.09-.39.11-.88.83-1 0 0 .16-.15.16-.25.08-.44.55-.63 1-.8a14.47 14.47 0 0 1 4-1c1-.08 2.12-.13 3.15-.12h2.24a11.43 11.43 0 0 1 5.79 1.53c.45.3 1 .49 1.46.79a5.18 5.18 0 0 1 2.22 2.56 9.09 9.09 0 0 1 .57 1.69.42.42 0 0 1 .08.28 12.76 12.76 0 0 1-.84 3.73 8.68 8.68 0 0 1-2 2.53 28.35 28.35 0 0 1-2.32 2.07 18.32 18.32 0 0 1-2.89 1.69 20.46 20.46 0 0 1-3.64 1.56c-.41.13-.41.18-.15.4a11.25 11.25 0 0 1 2.09 2.43 11.86 11.86 0 0 0 1 1.21 25 25 0 0 1 2.76 3.91l.47.59c.68.86 1.19 1.78 1.86 2.59s1.12 1.68 1.73 2.45a5.47 5.47 0 0 1 .49.83 13.11 13.11 0 0 0 1.47 2.19 7.62 7.62 0 0 1 .85 1.46c.08.24.16.43-.2.5s-.16.31-.52.38a5.4 5.4 0 0 1-2.7-.34.66.66 0 0 1-.46-.35c-1-1.5-2.37-2.93-3.58-4.37-1.08-1.26-2-2.57-3-3.89l-3.94-5.64a19.55 19.55 0 0 1-1.47-2.38c-.08-.19-.16-.37-.46-.35s-.16.3-.14.45c.07.86.2 1.67.33 2.52a13.61 13.61 0 0 1 .17 4.18 2.51 2.51 0 0 0 0 .67l.31 3.69a27.52 27.52 0 0 1 0 3.85 17 17 0 0 0-.23 2.34c.09.33-.13.59-.54.81a4.45 4.45 0 0 1-2.37.68c-1.28-.08-1.87-.51-2.08-1.55a9.11 9.11 0 0 1-.14-1.73zm5-13.76c0 .48 0 .48.56.24 1.53-.61 2.93-1.36 4.45-2a18.77 18.77 0 0 0 6.82-4.81 3.15 3.15 0 0 0 .5-3.47 5.38 5.38 0 0 0-2.19-2.17 7 7 0 0 0-2.82-1L97 19.91h-.19a5.36 5.36 0 0 1-1.26.15c-.3 0-.42.09-.46.33a6.91 6.91 0 0 0-.05 2.22 3.22 3.22 0 0 0 .2 1.39 5.37 5.37 0 0 1 .06 1.39c.1 1.24.33 2.48.55 3.71a21.18 21.18 0 0 1 .15 4.29zm24.05-9.94a1 1 0 0 0 0 .43 15.07 15.07 0 0 1 .38 2.28 9.28 9.28 0 0 0 .41 1.94c.07.14.19.18.37.12 1.75-.2 3.49-.35 5.23-.69.66-.1 1.32-.2 2-.26a4.12 4.12 0 0 1 2.11.5c.25.07.26.26.1.52a2.15 2.15 0 0 1-1.22.58 7.2 7.2 0 0 0-2 .51 6.88 6.88 0 0 1-1.67.29c-1.39.11-2.63.51-4 .72-.55.05-.6.15-.57.53 0 .72.13 1.43.07 2.16-.06 1.55.07 3 .07 4.52.08.86.33 1.71.4 2.57.1 1.1.18 2.16.21 3.21 0 1.25.21 2.49.26 3.74 0 .72-.12 1.45-.18 2.18a.93.93 0 0 0 .24.66c.2.22.15.42-.13.63a.66.66 0 0 0-.3.85c.1.42-.12.68-.6.82a1.48 1.48 0 0 1-.91 0 3.24 3.24 0 0 0-.8-.17.79.79 0 0 0-.66.15 1 1 0 0 1-.9.07l-1.37-.41a.71.71 0 0 1-.46-.3 4.48 4.48 0 0 1-.72-2.83 9.73 9.73 0 0 0-.1-1.87l-.18-2.1a31.29 31.29 0 0 0-.51-4.68c-.12-.71-.13-1.48-.25-2.2l-.55-3.71a25.58 25.58 0 0 1-.27-3.15c-.06-2.17-.37-4.36-.43-6.52l-.07-4.43c0-.24.09-.39.44-.51a6.63 6.63 0 0 1 3.18-.51 7.9 7.9 0 0 0 1.45-.13c1.38-.21 2.77-.28 4.15-.45s2.54-.21 3.79-.41a10.71 10.71 0 0 1 1.7-.1c1.26-.1 2.54-.16 3.8-.27a4.28 4.28 0 0 1 2.4.33c.19.13.51.24.41.49a1 1 0 0 1-.7.45 39.92 39.92 0 0 0-4.84.89c-1.72.48-3.48.53-5.21.87a22.2 22.2 0 0 1-3.5.35 7.74 7.74 0 0 1-.07 2.34zm26.4 5.48c1.14-.2 2.28-.34 3.43-.48a1 1 0 0 1 1.13 1.15c0 .1-.11.16-.23.21a7.59 7.59 0 0 1-1 .38c-1.12.38-2.11.95-3.23 1.33l-.83.22c-.73.06-1.44.17-2.17.27h-.3c-.54.09-.65.2-.61.63v3.76a12.74 12.74 0 0 1 0 2.31 25 25 0 0 0 .31 2.86c.05.62 0 1.2 0 1.83.07.86.27 1.76.34 2.62a6.66 6.66 0 0 1-.11 2.23 1.74 1.74 0 0 0-.06.77c0 .29.16.38.45.3l1.67-.43c1.54-.47 3-.93 4.63-1.3.59-.15 1.2-.2 1.86-.31a17.71 17.71 0 0 0 2.15-.32c.9-.22 1.62.44 1.44 1.13a1.18 1.18 0 0 1-1 .62 19 19 0 0 0-2.87.58c-1.25.29-2.5.69-3.74 1.08-1.53.52-3.07 1.08-4.67 1.51a11.49 11.49 0 0 0-1.64.76 7 7 0 0 1-2 .5 1.63 1.63 0 0 1-.74-.13 2.82 2.82 0 0 1-1.66-2.31c-.13-.86-.14-1.73-.21-2.59-.14-1.62-.46-3.23-.66-4.86a47 47 0 0 1-.6-5c0-2.27-.39-4.55-.4-6.81l-.07-4.52v-3.47l.13-3.48c.06-.68-.11-1.29 0-1.92 0-.2-.1-.38-.11-.57-.16-.43 0-.68.48-.77a6.51 6.51 0 0 1 3 0 5 5 0 0 0 1.35.17c1.16.05 2.31 0 3.46 0s2.42-.06 3.69-.22l2.53-.21a3.65 3.65 0 0 1 1.55.35.54.54 0 0 1 .36.64c0 .15-.05.2-.23.22-1 .28-2 .55-3.09.74-1.81.25-3.56.3-5.37.5-.54.05-.71.21-.68.64a16.63 16.63 0 0 1 .15 1.72 2.62 2.62 0 0 1 0 1.15 1.16 1.16 0 0 0 0 .49 41.36 41.36 0 0 1 .27 4.69 8.45 8.45 0 0 0 0 1.74.5.5 0 0 0 .15.37c1.31-.23 2.5-.52 3.75-.77zm8.46.63a22.54 22.54 0 0 1 .65-5.26 20.52 20.52 0 0 1 3.43-7.56 2.69 2.69 0 0 1 .5-.57 19.87 19.87 0 0 0 1.61-1.51 4.93 4.93 0 0 1 3.23-1.38 7.42 7.42 0 0 1 2.49 0l1.36.31a.84.84 0 0 1 .45.25A5.65 5.65 0 0 1 170.4 16l.64 1.15a2.26 2.26 0 0 1 .21 1.76c-.14.54-.21 1.13-.4 1.67a1.07 1.07 0 0 1-1.65.62.58.58 0 0 1-.35-.54c-.07-.77-.25-1.52-.26-2.29a6.62 6.62 0 0 0-.42-2.14.58.58 0 0 0-.46-.39 1.77 1.77 0 0 0-1.22 0h-.42a2 2 0 0 0-1.92 1 13.13 13.13 0 0 0-1.4 2.87 8 8 0 0 0-.81 2.67 6.48 6.48 0 0 1-.36 1.52c-1.18 5.35 0 13.25 1.68 18.36a8.68 8.68 0 0 0 1.74 3.32 6.82 6.82 0 0 0 1 .79l.26.21a1.26 1.26 0 0 0 1.31.38 4.8 4.8 0 0 0 2.43-1.13 1.42 1.42 0 0 0 .54-.81l.56-1.93a2.26 2.26 0 0 1 1.32-1.7.92.92 0 0 1 .92.16c.39.26.3.6.33 1a17.46 17.46 0 0 1-.58 2.5 4.17 4.17 0 0 1-.59 1.64 14.31 14.31 0 0 1-1.82 2.13 5.4 5.4 0 0 1-2.44 1.36 12.33 12.33 0 0 1-1.9.55 6 6 0 0 1-2.33-.24 10.86 10.86 0 0 1-2.7-1.07 12.78 12.78 0 0 1-3.52-3.51 13.35 13.35 0 0 1-1.4-3.69c-.31-1.46-.74-3-1-4.49-.16-1.14-.2-2.34-.3-3.59s-.09-2.79-.09-4.24zm32.81-12.7c.08 1 0 1.93.07 2.94.12.76 0 1.54.07 2.3.08 1 .1 1.92.18 2.88.19 1.43.13 2.88.25 4.31a14.2 14.2 0 0 1 .24 2.1c-.19 1.42.17 2.83 0 4.24a5.89 5.89 0 0 0 .08 1.73c0 1.15.2 2.3.23 3.4a12.71 12.71 0 0 1-.08 2.61c0 .68-.07 1.36-.13 2.08 0 .39.18.71.09 1.1-.05.15 0 .29-.22.31-.06 0-.11.11-.11.11s.15.32 0 .38a1.41 1.41 0 0 1-.89.18c-.31-.07-.55 0-.59.29 0 .09-.11.1-.23.06a1 1 0 0 1-.38-.16 4.47 4.47 0 0 0-1.63-.53c-.68-.14-1-.45-.93-1 .09-.35-.12-.67-.14-1a14 14 0 0 0-.08-1.59c-.12-.76-.18-1.47-.24-2.19-.05-1.3-.16-2.59-.15-3.89v-3.4a18.45 18.45 0 0 0-.3-3.64 2.09 2.09 0 0 1-.08-.86 4.6 4.6 0 0 0 0-.91 6.6 6.6 0 0 1-.07-2.21c0-.49-.08-1-.06-1.45a7.3 7.3 0 0 1-.08-1.67 6.69 6.69 0 0 0-.14-1 7.62 7.62 0 0 1 0-2.08v-1.15c-.08-.86 0-1.78-.11-2.69a17.6 17.6 0 0 0-.15-1.77c0-.38-.1-.42-.57-.29-.66.11-1.32.26-2 .31a45 45 0 0 1-5.69.2 1.54 1.54 0 0 1-.43 0c-.38-.12-.81-.22-.85-.66 0-.09-.07-.13-.08-.23-.19-.8-.32-1 .74-1.31a10.28 10.28 0 0 1 3.18-.56 52.06 52.06 0 0 0 5.44-.32 46.34 46.34 0 0 1 5.13-.33 16.1 16.1 0 0 0 2.6-.22c1.14-.1 2.3-.15 3.37-.34a10.82 10.82 0 0 1 2.54-.16 4.42 4.42 0 0 0 1.08-.14l.85-.08a1 1 0 0 1 1.08.59c.08.23 0 .39-.26.55a3.83 3.83 0 0 1-2.5.64 5.19 5.19 0 0 0-1.5.18c-1.19.24-2.4.35-3.54.54h-.42a8.36 8.36 0 0 1-2.87.53c.59 1.13.25 2.22.28 3.27zm28.51 27.51a16.1 16.1 0 0 1-2.57.46 9.87 9.87 0 0 1-1.63.14v-.1h-.6a23.68 23.68 0 0 0-2.65.33c-.78.06-1.56.22-2.35.29a9.18 9.18 0 0 1-3-.18 3.09 3.09 0 0 0-.91 0 2.12 2.12 0 0 1-2.24-.67 5.8 5.8 0 0 1-.39-1.71 26.41 26.41 0 0 1-.47-3.42l-.32-5.23c0-1.49.17-2.95.11-4.44s0-3.18-.1-4.76l-.42-5c-.06-.67-.17-1.33-.23-2a20.42 20.42 0 0 1 0-2.07 9.46 9.46 0 0 0-.13-2.21.54.54 0 0 1 .07-.58.38.38 0 0 1 .35-.27c.48 0 1.19-.25 1.61-.28a6.1 6.1 0 0 1 3.45.57 2.32 2.32 0 0 1 1.2 1.93 29.53 29.53 0 0 1 .15 4.61c0 .62.17 1.28.22 1.91a22.86 22.86 0 0 0 .31 3 21.28 21.28 0 0 1-.43 2.88 18.5 18.5 0 0 0 .34 3.19v.3a4.2 4.2 0 0 0 0 1.54c.12 1.39.11 2.78.11 4.18a14.31 14.31 0 0 0-.06 2.85 8 8 0 0 1 .17 2.06 6 6 0 0 0 .27 1c0 .29.21.42.63.38.6-.1 1.21-.15 1.81-.2.85 0 1.76-.05 2.6-.12.18 0 .3-.08.48-.09a9 9 0 0 1 1.64 0 3.65 3.65 0 0 0 1.21-.1 1.83 1.83 0 0 1 1.6.29l.71.52c.33.45.14.8-.54 1zm9.97-23.77a35 35 0 0 1 1.71-4.77c.67-1.36 1.16-2.75 1.71-4.14.35-.95.82-1.9 1.22-2.85a9.48 9.48 0 0 0 .74-1.37.93.93 0 0 1 .87-.46 13.37 13.37 0 0 1 3 .08 1.31 1.31 0 0 1 1.21 1.35 7.41 7.41 0 0 0-.15 1.07 2.62 2.62 0 0 1-.33 1.14c-.42.8-.65 1.69-1.06 2.49a12.34 12.34 0 0 0-.79 2.91c-.14.5-.48.86-.62 1.36-.43 1.29-.69 2.61-1.19 3.9-.39 1.05-.54 2.17-.87 3.26l-1.44 4.55c-.3 1.24-.83 2.54-1.3 3.78-.24.64-.5 1.24-.69 1.89L227.6 38a33.77 33.77 0 0 1-1.23 4.1l-1.84 4.06a1.52 1.52 0 0 0-.21.45c-.21.4-.42.81-1 .9a.36.36 0 0 0-.23.12c-.23.12-.4.32-.66.15s-.18 0-.29.08a.43.43 0 0 1-.24.06c-.35.18-.46-.39-.86-.12s-.67 0-1-.06a.89.89 0 0 1-.75-1 20.73 20.73 0 0 1 .88-3.93 25.93 25.93 0 0 0 .83-3.11c.42-1.48.85-3 1.14-4.48a33.76 33.76 0 0 0 .74-3.48 10.22 10.22 0 0 1 .43-1.39c.48-1.53 1-3 1.57-4.51.1-.25.08-.44-.3-.6a10.52 10.52 0 0 1-3-2.16c-.86-.84-1.83-1.62-2.76-2.46a43.57 43.57 0 0 1-3.88-4.2c-.74-.85-1.24-1.73-1.86-2.59l-1.29-1.72c-.07 0-.13-.09-.14-.13-.28-.42-.19-.81.4-1a4.4 4.4 0 0 1 2.35-.25.92.92 0 0 1 .51.2l.78.7c.82 1 2.09 1.71 3 2.69a9.28 9.28 0 0 1 .88 1.18 11.62 11.62 0 0 1 .83 1.13 16.19 16.19 0 0 0 1.87 2c.6.58 1.24 1.06 1.84 1.58a9.5 9.5 0 0 1 1.27 1.44 2.21 2.21 0 0 0 .53.53z" transform="translate(-2.3 -7.3)"/>
      <path class="cls-1" d="M126.43 105.86a20.65 20.65 0 0 1-3.79 11.55c-.32.46-.64 1.08-1.12 1.23-2.69 1.37-4.45 3.7-6.67 5.54-4.29 3.54-8.88 5.82-14.53 6.2a29.56 29.56 0 0 0-6.44.68 5.64 5.64 0 0 1-2.82-.2 1.87 1.87 0 0 0-1.57-.18c-.63 0-1.1.45-.95.93.28 1.73-.37 3.44-.24 5.17.56 4.09-.44 7.84-1.6 11.74a25.72 25.72 0 0 0-.53 3.6 35.82 35.82 0 0 1-2.48 8 11.91 11.91 0 0 0-.85 4.06c0 1.57 0 3-1.32 4.22a3 3 0 0 0-.33 1.09 32.51 32.51 0 0 1-4.37 8.71 11.83 11.83 0 0 0-2-.82 6.81 6.81 0 0 1-3-1.14l.33-.94c-1.71-1.12-1.84-3-2-4.89-.12-2.82.09-5.8.13-8.62-.09-4.08-.18-8.16-.43-12.09v-1.88c.26-6.74 0-13.49-.15-20.24a86.05 86.05 0 0 1 0-11.13c.21-3.61.42-7 .32-10.66L70 97c0-3 .25-6.11.46-9.25 0-.31.17-.62.17-.93 0-.47-.3-.79-.77-.49-2.38 1.53-5.06 2.59-5.9 5.71-.33 1.41-1.6 2-2.86 2.62-1.11.46-1.88-.18-2.5-1s-1.07-1.58-.43-2.51a27.6 27.6 0 0 1 3.53-4.81 45 45 0 0 1 3.83-3.86A8.61 8.61 0 0 1 69 80.32c1.89-.75 2.22-1.22 2.41-3.26 0-3.29.1-6.58-.16-9.88a5.1 5.1 0 0 1 0-2.2c0-.94.5-1.4 1.44-1.7 2.21-.75 4.24.07 6.27.57l2.65 1v.48a8.28 8.28 0 0 1 3.85 4.45c.91 2 .91 1.9 3 1.77a18.18 18.18 0 0 1 2.83-.27 47.77 47.77 0 0 1 9.41.31 67.87 67.87 0 0 0 8 1.07 4.74 4.74 0 0 1 2.5.82c1.86 1.29 3.56 2.88 5.42 4.32a10.15 10.15 0 0 1 2.52 3.2l1.07 1.74c2.47 2.71 3.67 6.18 4.55 9.8a19.81 19.81 0 0 0 .9 2.84 8.61 8.61 0 0 1 .87 4.4 40.35 40.35 0 0 1-.1 6.08zm-19.2-5.48a41.29 41.29 0 0 0-.49-8.79c-.43-2.36-1.49-4.73-2.08-7.1a9.84 9.84 0 0 0-3.37-5.22 7.55 7.55 0 0 0-7.34-2 11.41 11.41 0 0 1-3.3-.06c-1.72-.34-2.19.28-2.06 1.85a8.21 8.21 0 0 1-.07 3.94 17 17 0 0 0-.52 3.9 74.44 74.44 0 0 1 0 8.31 79.42 79.42 0 0 0 .12 12.24 83.23 83.23 0 0 1 .33 8.78 57.61 57.61 0 0 0 0 9.1c0 1.1 0 1.1 1.24 1 1.57-.13 3.15-.89 4.88-1.17 3-.74 4.91-3.06 6.36-5.39 1.77-3 3.23-6.07 4.85-9a11.79 11.79 0 0 0 1-3.28 35.53 35.53 0 0 0 .45-7.11z" transform="translate(-2.3 -7.3)"/>
      <path class="cls-1" d="M172.9 127a3.49 3.49 0 0 0-.49 1.09c-1.6 2-1.15 3.43-2.28 5.45a37.58 37.58 0 0 1-2.91 5.45 12.33 12.33 0 0 1-1.13 1.86c-1.13 2.18-2.42 4.35-3.71 6.37-2.58 4.35-3.71 6.37-5.32 8.86-3.21 5-7.87 11.79-12.78 14.85-5.07 3.06-10.72 3.28-16.19 1.94-.31-.16-.78-.17-1.09-.49-2.17-1.6-5-2.59-6.66-5.12a13.53 13.53 0 0 1-1.83-3.33 34.16 34.16 0 0 1-2.43-14.78c.64-10.5 1.63-23.81 6.49-33.31 2.1-4.2 4.85-8.86 8.66-11.93a2.14 2.14 0 0 1 2.05-.6 12.8 12.8 0 0 0 4.86.24 10.67 10.67 0 0 1 8.41 3.58 9.32 9.32 0 0 1 1.7 11.32 5.86 5.86 0 0 0-.65 1.4 2.71 2.71 0 0 1-1.6 1.86 5.51 5.51 0 0 0-2.7 2.31 8.37 8.37 0 0 1-3.33 2.45 20.82 20.82 0 0 1-6.8 3.19c-1.1.14-1.43 1.08-1.6 2-.5 2-.85 4.22-1.19 6.26a109.38 109.38 0 0 0-1.67 16c-.21 3.45-.75 7.52 2.35 9.92 7.74 6.4 20.1-11.29 23.63-16.09 1.44-1.86 2.09-3.26 3.37-5.13.64-.77 2.26-4 3.21-4.49a1.59 1.59 0 0 0 .64-.78 46.9 46.9 0 0 1 3.21-4.5c.32-.62 1.1-.45 1.74-.91a19.74 19.74 0 0 0 2.55-2.62 30.59 30.59 0 0 0 2.73-4.2c.32-.3.64-.61 1.11-.29.3.29-.03 1.69-.35 2.17zm-38.51-5a.53.53 0 0 0 .79 0 23.85 23.85 0 0 0 6.19-5.08l.49-.62a15.18 15.18 0 0 0 .4-6c-3.51 3.75-6.54 7.16-7.87 11.7z" transform="translate(-2.3 -7.3)"/>
      <path class="cls-1" d="M178.74 175.55c-.63.3-1.08-.8-1.87-.5a7 7 0 0 1-1.89.44c-1.57.29-2.81-.83-4.06-1.48-.15-.16-.3-.32-.46-.32a4.51 4.51 0 0 1-2-3.64c-.26-3.45-.52-7.07-.93-10.52-.71-4.72-1.1-9.74-1.65-14.46-.86-5.5-1.24-10.84-2.25-16.35a81.93 81.93 0 0 0-2.5-10.7c-.3-.79-.92-1.43-.28-2.36.16-.31 0-.31 0-.31a1.57 1.57 0 0 1 .34-1.88 4.39 4.39 0 0 1 2.22-1.53c1.42-.3 2.67 0 3.92-.1h.32c3.12 1 6.4 1.82 8.54 5.15.15.32.46.48.62.64a6.86 6.86 0 0 1 2.31 2.86 23.53 23.53 0 0 1 2.07 7.88 19.94 19.94 0 0 1 .27 2.82c0 .32.14.79.3.79.31 0 .47-.3.63-.62 0-.15.17-.31.17-.46a18.83 18.83 0 0 1 2.44-5.77 59.36 59.36 0 0 1 4.84-7.92 43.8 43.8 0 0 1 3.84-5.12c1.76-2 3.51-3.55 6-3.82 2.2-.44 4.09-.72 6 .09a6 6 0 0 1 2.79 1.93 7.75 7.75 0 0 0 1.69 2.22 3.67 3.67 0 0 1 .92 1.27 3.52 3.52 0 0 1-2.43 4.83c-1.73.59-3.29-.06-4.51-2-.61-1.26-1.86-1.6-2.63-2.24-1.26.3-2.83 0-3.94 1.2a32.85 32.85 0 0 0-5 7.76 25.28 25.28 0 0 0-2.12 5.14 5.34 5.34 0 0 1-1.3 2.65 6.67 6.67 0 0 0-.82 2.65 19.26 19.26 0 0 1-1 3.75 42.47 42.47 0 0 0-1.52 6.72l-.92 8.46c-.2 2.35-.7 4.53-.74 6.88a12.11 12.11 0 0 0-.35 2.67 10.15 10.15 0 0 0 .26 3 6 6 0 0 1-.35 2.35 25.87 25.87 0 0 1-2.13 6.08 3.5 3.5 0 0 1-2.7 1.84z" transform="translate(-2.3 -7.3)"/>
      <path class="cls-1" d="M258.82 128a4.36 4.36 0 0 1-.5 1.25 34.45 34.45 0 0 1-4.68 8.55 13 13 0 0 1-2.24 2.63v.16a14.54 14.54 0 0 1-4.75 3.06l-1.11.45v.16a13 13 0 0 1-5.66 1h-1.1c-1.73.13-3.9-1.16-5.61-2.13l.6 1.58c2 4.89 3.92 9.79 4.77 15.13a19.13 19.13 0 0 0 .74 3.15c.58 2.68.23 5.18.66 7.85.27 2.83.38 5.81.49 8.64a6.44 6.44 0 0 1-.21 3.45 6.92 6.92 0 0 0-.36 2.5 21.49 21.49 0 0 1-.63 10 20.5 20.5 0 0 1-4.52 8.08 10.37 10.37 0 0 1-4.58 2.28 13.44 13.44 0 0 1-8.94-.14 2.87 2.87 0 0 0-1.25-.33 7.07 7.07 0 0 1-5.28-3.22c-4-6-7.49-12-9.42-19a39.94 39.94 0 0 1-1.16-6.29l-.87-4.41a55.19 55.19 0 0 1-1.68-12.41l-.51-7.85a20.9 20.9 0 0 1-.08-4.4c.38-4.54-.36-6.9-.44-11.77.07-4.39.8-11.12 1-14.88.06-3.76.69-4.38.91-8.14A70.69 70.69 0 0 1 205 99.11c1.32-3.75 2.17-8.28 3.33-12a19 19 0 0 1 2.12-4.83c.48-.77.65-1.71 1.14-2.49 2.11-4.35 4.36-8.4 7.71-11.64a31.33 31.33 0 0 1 5.08-4.15 8.87 8.87 0 0 1 5.35-.86 17.3 17.3 0 0 1 7.79 3.26 6.68 6.68 0 0 1 2.61 3.6 25.1 25.1 0 0 1 1.44 8.18A32.3 32.3 0 0 1 241 86c-.51 2.81-1.65 5.46-2 8.28a7.83 7.83 0 0 1-1 2.72c-1.45 2.17-2.11 4.51-3.25 6.85-.81 1.39-1.77 2.63-1.79 4.36 0 .16-.17.31-.17.47-1.61 2.64-2.91 5.44-4.67 7.92a3.24 3.24 0 0 0-.64.93c-1.14 2.34-6.06 6.18-4.84 8.24l.3.63a96.13 96.13 0 0 0 8.8 9.08l.62.64c3.41 2.56 6.52 3.87 9.83 2.82a14 14 0 0 0 8-6.46c.48-.62 2.67-.27 3.15-.73.95-.93 1.41-.3 2.21-1.38.81-1.24 1.78-3 2.74-4.19a.76.76 0 0 1 1.1-.3c.24.29-.25 1.69-.57 2.12zm-26.41 43.18a95.74 95.74 0 0 0-2.73-16c-1.77-6.77-4.34-13.24-9.43-18.34a12.72 12.72 0 0 0-2.33-1.76c-1.09-.49-1.25-.34-1.26.76l-.61 8.62v1.56c.44 2.21.09 4.56.37 6.44a45.83 45.83 0 0 0 .48 9.58 88 88 0 0 1 1.11 9 38.6 38.6 0 0 0 1.29 7.39 59.08 59.08 0 0 0 1.77 7.08c1.18 4.57 2.21 9.29 4.33 13.72a2.15 2.15 0 0 1 .3.94c.45 1.27.92 1.59 1.88.5a14.73 14.73 0 0 0 4.54-9.8l.43-6.9a87 87 0 0 0-.14-12.75zM218 111.55v1.57c-.17.46.14 1.1.29 1.57.3.48.62.48.94 0l1-1.4a17.63 17.63 0 0 1 2.41-3.57 25.83 25.83 0 0 0 3.52-4.65c4.18-5.89 6.32-12.6 7.69-19.8.35-2.34.55-4.85.75-7.36a17.91 17.91 0 0 0-.84-6.44c-.3-.95-.77-1.27-1.71-1a7.21 7.21 0 0 0-4.44 2.91 39.67 39.67 0 0 0-3.07 5.75 27.34 27.34 0 0 0-2.36 4.87 51.31 51.31 0 0 1-1.82 6.56c-1.15 3-1.2 6.1-1.72 9.23a40.68 40.68 0 0 0-.23 4.38c.12 2.37-.54 4.83-.41 7.38z" transform="translate(-2.3 -7.3)"/>
      <path class="cls-1" d="M304.47 129.08a3.49 3.49 0 0 0-.49 1.09c-1.6 2-1.15 3.43-2.28 5.45a37.58 37.58 0 0 1-2.91 5.45 12.33 12.33 0 0 1-1.13 1.86c-1.13 2.18-2.42 4.35-3.71 6.37-2.58 4.35-3.71 6.37-5.31 8.86-3.22 5-7.88 11.79-12.79 14.85-5.07 3.06-10.72 3.28-16.18 1.94-.32-.16-.79-.17-1.09-.49-2.17-1.6-5-2.58-6.67-5.12a13.87 13.87 0 0 1-1.83-3.33 34.28 34.28 0 0 1-2.43-14.78c.64-10.5 1.63-23.81 6.49-33.3 2.11-4.2 4.85-8.87 8.66-11.94a2.17 2.17 0 0 1 2.05-.6 12.8 12.8 0 0 0 4.86.24 10.67 10.67 0 0 1 8.41 3.58 9.32 9.32 0 0 1 1.7 11.32 5.86 5.86 0 0 0-.65 1.4 2.7 2.7 0 0 1-1.59 1.86 5.53 5.53 0 0 0-2.71 2.31 8.39 8.39 0 0 1-3.33 2.46 21 21 0 0 1-6.8 3.18c-1.1.14-1.43 1.08-1.6 2-.5 2-.85 4.23-1.19 6.26a109.38 109.38 0 0 0-1.67 16c-.21 3.45-.75 7.52 2.35 9.92 7.74 6.4 20.1-11.29 23.63-16.09 1.44-1.86 2.09-3.26 3.37-5.12.64-.78 2.26-4.05 3.21-4.5a1.55 1.55 0 0 0 .64-.78 47.25 47.25 0 0 1 3.21-4.49c.32-.63 1.11-.46 1.74-.92a19.74 19.74 0 0 0 2.55-2.62 30.59 30.59 0 0 0 2.73-4.2c.32-.3.64-.61 1.11-.29.31.3-.03 1.7-.35 2.17zm-38.51-5a.53.53 0 0 0 .79 0A24.06 24.06 0 0 0 273 119l.48-.62a14.94 14.94 0 0 0 .4-6c-3.56 3.77-6.59 7.17-7.88 11.7z" transform="translate(-2.3 -7.3)"/>
      <path class="cls-1" d="M358.58 129.94a3.49 3.49 0 0 1-.49 1.09c-1.44 2-1 3.43-2.12 5.46-1.13 1.86-1.14 2.33-2.91 5.28l-1.29 2a42.26 42.26 0 0 1-3.7 6.37l-.48.62a.51.51 0 0 1-.17.31l-1 1.56-2.27 4.82s0 .16-.16.16a.54.54 0 0 1-.17.31c-.64.93-1.12 1.86-1.76 2.64a12.33 12.33 0 0 1-1.13 1.86v.16l-1 1.24-.64.77a.16.16 0 0 0-.16.16 21.58 21.58 0 0 1-1.61 2.32v-.31l-1.29 1.86a3.29 3.29 0 0 1-.8 1.09 39 39 0 0 1-8.57 6.6 13 13 0 0 1-6.16 2.1 9.58 9.58 0 0 0-2.7.59 1 1 0 0 0-.63.15 5.65 5.65 0 0 1-1.57.13 6.25 6.25 0 0 1-1.72-.18 21.75 21.75 0 0 1-7.16-3.25l-.94-.64-1.39-1a5.94 5.94 0 0 1-1.39-1.43l-1.07-1.59c-1.69-2.53-3.37-5.38-4.89-8.23a15.42 15.42 0 0 1-1.34-4.57v-.16a38.49 38.49 0 0 1-.72-4.09c-.13-1.25-.43-2.51-.72-3.93a18.59 18.59 0 0 1 .27-7.21 27.46 27.46 0 0 0 .37-3.6l.36-2.66a16.17 16.17 0 0 1 4.06-8.72 16.47 16.47 0 0 0 2.09-3 5.69 5.69 0 0 1 1-1.55 2.53 2.53 0 0 1 2.53-1.22c.31 0 .47-.14.95-.45a18.13 18.13 0 0 1 12.3-4.35h3.45a20 20 0 0 1 3.29.21c1.73.18 3.91.69 5.13 2.75.16 0 .16.16.32.16 2.32 1.61 3.39 3.82 3.65 7a21.43 21.43 0 0 1-.71 5.48l-.49.93-.49 1.25c-.17.62-.49 1.09-1.12 1.08h-.15l-.32.15a1.21 1.21 0 0 1-1.11.61 1.59 1.59 0 0 1-1.08-.65 1.19 1.19 0 0 0-.63-.32 4 4 0 0 1-1.4-.65 1.89 1.89 0 0 1-.13-1.57 19.59 19.59 0 0 1 .68-3 6.68 6.68 0 0 0 .52-3.44 3.37 3.37 0 0 0-2.15-3 3.21 3.21 0 0 0-3.13-.2 4.89 4.89 0 0 1-2.52.43h-.94a3.35 3.35 0 0 0-2.85 2l-.16.16a8.71 8.71 0 0 0-.66 1.87 15.72 15.72 0 0 1-1.14 2.34c0 .15-.16.31-.16.62a17.83 17.83 0 0 1-.2 2.82 24.8 24.8 0 0 0-.21 3.45c0 1.41.11 2.82.09 4.08a43.18 43.18 0 0 1 .08 4.55 2.11 2.11 0 0 0 .45 1.26v.31a11 11 0 0 1 1 4.72 38.64 38.64 0 0 0 .56 4.25l.29 1.73a4.47 4.47 0 0 0 .6 1.73 9.48 9.48 0 0 1 .9 2.21 14.49 14.49 0 0 0 1.67 3.48l.16.16a4.93 4.93 0 0 0 2.63 2.08 2.3 2.3 0 0 0 1.09.33c.47 0 .95-.14 1.42-.13a8.43 8.43 0 0 0 5.7-3.83l3.2-3.87 1-1.24c-.15 0-.15-.16-.15-.16l3.68-4.8 1.45-2.49c1.13-1.87 2.42-3.88 3.86-5.9a3.45 3.45 0 0 1 .64-.93c.48-.62 2.11-4.05 3.21-4.5.32-.15.33-.62.64-.93 1.13-2 1.93-2.48 3.05-4.34.49-.62 1.27-.45 1.74-.92a21 21 0 0 0 2.71-2.62 37.76 37.76 0 0 1 2.74-4.19.67.67 0 0 1 1.1-.3c.21.4-.29 1.8-.61 2.27z" transform="translate(-2.3 -7.3)"/>
      <path class="cls-1" d="M488.6 110.36c-6.92 1.15-5.41-5-1-6.92 7.11-3.33 1.71-9.38-3.28-11-5-1.49-11-.64-16 .53-10.23 2.51-18.56 3.63-26.6 6.32-2.69.9-5.52 1.49-8.2 2.38-3.31 1-3.31.89-6.61 1.78-2.53.74-5 1.17-11 3.27-2.68.9-9.93 3.46-12.77 4.19-4.09 1.19-5 1.81-9.14 3a22.58 22.58 0 0 0-4.75 2.43 3.14 3.14 0 0 0-1 2.65c-.38 4.23-1.22 7.82-1.92 12-.53 4.07-.6 8.61-1.45 12.68a25.11 25.11 0 0 0-.37 3.44c-.68 3.45-.58 6.9-1.11 10.34a99.49 99.49 0 0 0-.32 20.54c.67 6.76 4.81 3.06 10.08-2.82a185.14 185.14 0 0 0 14.57-18.75h.16l2.08-2.79c1.44-1.86 2.09-3.26 3.38-5.13.64-.77 2.26-4 3.2-4.49a1.59 1.59 0 0 0 .64-.78 48.72 48.72 0 0 1 3.21-4.5c.33-.62 1.11-.45 1.74-.91l2.55-2.62c1-1.24 1.93-2.95 2.74-4.2.32-.31.64-.61 1.1-.29s0 1.72-.35 2.19a3.49 3.49 0 0 0-.49 1.09c-1.6 2-1.15 3.27-2.28 5.45a36.6 36.6 0 0 1-2.91 5.45l-1.13 1.86c-1.28 2.17-2.42 4.35-3.7 6.37-.81 1.4-6.91 10.24-12.05 17.69-5.77 7.91-10.58 14.26-10.73 14.1a.16.16 0 0 0-.16-.16 37.43 37.43 0 0 1-4.61 4.17c-4 2.76-9 3.93-13 .42-2.78-2.4-5.25-5-6.29-8.73a87.92 87.92 0 0 1-3.18-16.83 198.28 198.28 0 0 1-.44-21.66c.07-4.54.46-9.09.84-13.63.17-.47 0-.78.18-1.25 0-.63.52-3.44-.11-3.14l-6.62 2.25c-7.57 2.39-17.33 4.58-24.31-.23-3.41-2.41-6.29-8.57-4.82-12.63 1.81-5 6.33-3.5 8 .44.76 1.9 1 4.41 3.05 5.54s5.95.88 8 .44a65.58 65.58 0 0 0 9.13-2.36c2.36-.75 8.34-1.91 8.54-4.57 0-2.2.56-5.64.75-7.83.21-3 .41-5.8.77-8.77l.66-11.91a22.27 22.27 0 0 0-.07-5.65 10.44 10.44 0 0 0-.74-2.37c-.29-1.73.19-2.5 1.77-3.1 5.2-1.33 9.57.3 13.27 4.28a17.4 17.4 0 0 1 4.37 11c.38 5.5.16 9.73.07 15.06 0 .94-.65 1.87-.2 3a92.82 92.82 0 0 0 12.44-3.25c7.1-2.4 14.34-4.32 21.44-6.41 3-.89 6-2.1 9.14-2.83 7.87-1.92 15.59-4.15 23.61-5.43 11.8-2 31.48-6.56 39 6.11 2.63 4.81-.95 14.48-6.77 15.48z" transform="translate(-2.3 -7.3)"/>
      <path d="M468 129.61c-1 1.59-2 3.17-2.94 4.76-1.42 2.24-2.75 4.55-4.37 6.72a37.2 37.2 0 0 1-4.28 5 23.74 23.74 0 0 1-3.33 2.32.93.93 0 0 1-.48.29c-.95.37-1.24.22-1.53-.49 0-.15-.1-.36-.29-.36-1.15-.29-1.44-1.08-2-1.65a81.87 81.87 0 0 1-5.57-6.89c-.77-1-1.45-2.15-2.12-3.23a3.66 3.66 0 0 0-.58-.72c-.19 0-.28.08-.28.22a26.67 26.67 0 0 1-.18 3.89c-.08 3.31-.26 6.7-.43 10.08a28.36 28.36 0 0 0-.08 4 24.61 24.61 0 0 1-.17 4.54c-.19 1.37-.28 2.81-.37 4.18a20.24 20.24 0 0 0-.07 5.33c.2 1.08.3 2.23.4 3.31a1.84 1.84 0 0 0 .19.65c0 .14.2.36 0 .43-.48.36-.29.79-.29 1.15a2.9 2.9 0 0 1-1.9 2.1c-.38.14-.86.22-1.05.44a1.88 1.88 0 0 1-1.81.36 11 11 0 0 1-4-1.28 2.14 2.14 0 0 1-1.06-1.94c0-2.52 0-5-.13-7.55-.1-1.08.09-2.09.08-3.17-.1-2.52.08-5.05 0-7.57v-6.76c.08-2.67.17-5.33.44-8 .18-2.38-.4-4.75-.13-7.13.28-1.73.37-3.38.75-5.11l.37-1.44a2.66 2.66 0 0 0 .19-1.16c0-.86.19-1.08 1.24-1.37a25.11 25.11 0 0 1 3.24-.16 1.08 1.08 0 0 1 .48 0 5.61 5.61 0 0 1 4.88 1.2 17.7 17.7 0 0 1 4.42 4.81 57.34 57.34 0 0 0 3.56 6c.87 1.08 1.73 2.15 2.5 3.3l1.44 2.16c.39.5.58.5.86 0 1.52-2.16 3.14-4.4 4.47-6.64a60.19 60.19 0 0 1 6.27-8.81l1.14-1.31a1.35 1.35 0 0 1 .85-.58 12 12 0 0 1 3.16-.22 2.08 2.08 0 0 1 1.24.28c1.53.78 2.59 1.79 2.69 3.3a53.49 53.49 0 0 1 .12 5.54v5.83c0 1.88.11 3.75.21 5.69a7.53 7.53 0 0 1-.18 2.52 2.64 2.64 0 0 0-.09 1.23 11.06 11.06 0 0 1-.08 2.52c-.09 1.37 0 2.73-.08 4a15.71 15.71 0 0 1-.09 2c0 1.37 0 2.73-.08 4.1v2.67c-.18 3.38-.07 6.77-.44 10.15 0 .43-.28.87-.28 1.3s-.47.43-.76.51a3.62 3.62 0 0 1-1.82-.36l-1.53-1.07a2.28 2.28 0 0 1-.87-1.94c0-1.8.17-3.6.07-5.33-.2-1.94.27-3.89.17-5.83-.11-3.1.35-6.12.34-9.22l.36-5.47c0-1.59 0-3.17.07-4.76a19 19 0 0 1 .37-4 9.68 9.68 0 0 0 0-3.31c-.1-1.23-.2-2.52-.2-3.74.09-.29.18-.58-.2-.8a.8.8 0 0 0-.43.49zm49.55 47.16c-.29.58-.48.65-1 .15a1.06 1.06 0 0 0-.86-.29c-1 .44-1.34-.42-2.11-.63a1.23 1.23 0 0 1-.77-1 22.06 22.06 0 0 0-1-3.52c-.58-2.16-1.26-4.25-1.75-6.33-.58-3.17-1.46-6.26-2.24-9.35-.29-1.3-.38-1.3-1.91-1a44.54 44.54 0 0 1-5.06.67 34.9 34.9 0 0 0-4.85.53 5.06 5.06 0 0 1-1.82 0c-1.05-.14-1.34 0-1.53 1s-.56 1.88-.94 2.82a16.8 16.8 0 0 0-.75 3c-.28 1-.66 2-1 3.1-.66 1.59-1 3.25-1.6 4.84a14.28 14.28 0 0 1-.85 2.09 7 7 0 0 0-.57 1.3 19 19 0 0 1-2.57 2.89l-1.14.65a1.27 1.27 0 0 1-.86.22 1.73 1.73 0 0 0-1.05.08 2.87 2.87 0 0 1-.77.07l.1-.14c-1.24 0-2.58.08-2.87.08-1.05-.14-1.24-.5-1.05-1.36.56-1.8.74-3.61 1.31-5.34.38-1.22.75-2.52 1-3.74l1.41-5.12c.18-.94.66-1.81.84-2.74a29.94 29.94 0 0 1 1.79-5.77 43 43 0 0 0 1.7-6.06 21.86 21.86 0 0 1 1.13-3.46c.76-2 1.42-3.82 2.08-5.77l1.42-3.46c.66-1.73 1.13-3.61 1.79-5.41a9.88 9.88 0 0 1 1-2.24 4.77 4.77 0 0 0 .95-2.16 11.93 11.93 0 0 1 1.13-2.89c.09-.28.38-.36.67-.5a6.76 6.76 0 0 0 2.1-.59c.19-.14.38-.07.66 0 .1 0 1.15.28 2.11.57l.1-.29.47.14a26.14 26.14 0 0 0 2.59.56 4.26 4.26 0 0 1 3.16 2.3 17.8 17.8 0 0 1 1 3.16l1.07 4.6c.49 2.45 1 4.82 1.37 7.27.29 1.65.87 3.16 1.26 4.82s.78 3.31 1.27 5c.67 2 1.16 4 1.74 6.11l.3 1.37c0 .87.58 1.65.49 2.45a29 29 0 0 0 .78 5.11c.39 1.51.59 3 .88 4.53l.69 3.38a16.61 16.61 0 0 1 .29 2.3l.3 1.37a1 1 0 0 1-.03.63zm-10.91-26l-.69-3.16c-.58-2.23-1.07-4.46-1.55-6.69a24.45 24.45 0 0 0-1.07-4.39 21 21 0 0 1-1-2.59c-.39-1-.68-2.08-1-3.09 0-.14-.1-.36-.29-.36s-.38.15-.48.36l-.47 1.37c-.47 1.37-.94 2.74-1.32 4.19l-.75 2.95q-1.56 4.65-2.83 9.3a25.42 25.42 0 0 1-.75 2.6c0 .36.19.5.58.5.86-.08 1.72-.08 2.58-.08a53.69 53.69 0 0 1 8.31-.26c.73.12.82-.02.73-.6zm10.24 25.38c0-.15 0-.22-.19-.29s-.2.07-.2.14a.37.37 0 0 0 .2.29c.19.05.19-.02.19-.09zm28.33-34.42c2-3.11 3.41-6.43 5.5-9.61a74.58 74.58 0 0 1 5.13-7.36 4.18 4.18 0 0 1 2.95-1.46 4.9 4.9 0 0 0 1.53-.29 3.35 3.35 0 0 1 3.45 1.21 11 11 0 0 1 1 7.77 18.66 18.66 0 0 0-.28 3.24c0 1.8-.17 3.6-.16 5.48a15.54 15.54 0 0 0 .1 2.95 23.51 23.51 0 0 1-.07 3.74c-.09 1.95-.18 4-.36 6a36.75 36.75 0 0 1-.46 4.54 11.57 11.57 0 0 0-.27 4 25.5 25.5 0 0 1-.17 4.68v2.24c.1 1-.37 2-.27 3 0 .22-.19.36-.48.58-.85.44-1.62 1-1.61 1.81 0 .28-.29.36-.67.29a5.5 5.5 0 0 1-1.91-.5 5 5 0 0 0-1.54-.93.52.52 0 0 1-.29-.57 7.66 7.66 0 0 0-.2-3.31 16.67 16.67 0 0 1-.31-3.82c0-2.16-.11-4.32 0-6.55.09-3 .27-6 .44-9.08a82.35 82.35 0 0 1 .83-8.5c.27-2.3.36-4.53.54-6.77.09-1.15.47-2.23.46-3.38 0-.22.1-.44-.1-.65-.47.22-.57.51-.85.79a38.31 38.31 0 0 0-2.28 3.54c-1.42 2.38-2.75 4.77-4.37 7.15a27.44 27.44 0 0 1-3.89 4.84 3 3 0 0 1-1.34.87l-1.05.51a1.74 1.74 0 0 1-2.29 0 11.45 11.45 0 0 1-3.46-3.59c-.57-1.22-1.63-2.29-2.3-3.51a64.1 64.1 0 0 1-4.64-10.64c0-.14 0-.29-.29-.43a.87.87 0 0 0-.28.79 37.32 37.32 0 0 1 0 4.61 30.24 30.24 0 0 0 .21 4.18c.1.79-.38 1.58-.28 2.45.39 2.08-.36 4.25-.06 6.33a54.38 54.38 0 0 1-.08 5.55 9.33 9.33 0 0 0 .11 1.58 7.07 7.07 0 0 1 0 3.17c-.65 3-.26 5.91-.73 8.86-.09.79 0 1.58-.08 2.31a10.12 10.12 0 0 1-1.13 4c-.09.36-.38.58-.86.8s-1.24.43-1.9.8a2.23 2.23 0 0 1-1.53 0c-.58-.21-1.15-.14-1.53-.35a4.88 4.88 0 0 1-2.49-1.36c-.1-.07-.1-.28-.1-.43a64.54 64.54 0 0 0 0-7.49c0-2.52.08-5 .07-7.56 0-1.87-.11-3.67-.12-5.47a14.36 14.36 0 0 1 .17-3.46 21.15 21.15 0 0 0 .09-2.52c0-1.44.37-2.88.46-4.32s-.17-2.95-.17-4.48a44.67 44.67 0 0 1 .07-6.12c.09-1.36 0-2.8.17-4.17l.47-3c.09-.57 1.33-1.44 2.19-1.52l4-.3a3.36 3.36 0 0 0 .77-.08 4.43 4.43 0 0 1 4 .85 27.31 27.31 0 0 1 3 3.22c2.21 2.66 3.28 5.61 4.53 8.48l2.41 5a21.87 21.87 0 0 0 1.64 3.16zm62.17 34.65c-.28.58-.47.65-1 .15a1 1 0 0 0-.86-.29c-1 .44-1.34-.43-2.11-.64a1.22 1.22 0 0 1-.77-1 20.91 20.91 0 0 0-1-3.53c-.58-2.15-1.26-4.24-1.74-6.33-.59-3.16-1.46-6.25-2.24-9.35-.3-1.29-.39-1.29-1.92-1a42.39 42.39 0 0 1-5.06.67 36.46 36.46 0 0 0-4.87.53 5.06 5.06 0 0 1-1.82 0c-1.05-.14-1.34 0-1.52 1s-.57 1.88-1 2.81a17.84 17.84 0 0 0-.75 3c-.28 1-.66 2-1 3.1-.66 1.59-1 3.25-1.6 4.83a14.28 14.28 0 0 1-.85 2.09 8.58 8.58 0 0 0-.57 1.3 18.45 18.45 0 0 1-2.57 2.89l-1.14.66a1.33 1.33 0 0 1-.86.22 1.72 1.72 0 0 0-1 .07 2.49 2.49 0 0 1-.76.08l.09-.15c-1.24 0-2.58.09-2.86.09-1.06-.14-1.25-.5-1.06-1.36.56-1.81.75-3.61 1.31-5.34.38-1.22.75-2.52 1-3.75l1.41-5.12c.18-.93.66-1.8.85-2.74a29.37 29.37 0 0 1 1.79-5.76 44.31 44.31 0 0 0 1.69-6.06 21.86 21.86 0 0 1 1.11-3.45c.76-1.95 1.42-3.82 2.08-5.77l1.42-3.46c.66-1.74 1.13-3.61 1.79-5.41a10.11 10.11 0 0 1 1-2.24 4.57 4.57 0 0 0 1-2.16 11.93 11.93 0 0 1 1.13-2.89c.1-.29.38-.36.67-.51a6.75 6.75 0 0 0 2.1-.58c.19-.15.38-.07.67 0 .09 0 1.15.28 2.1.56l.1-.29.47.15c.77.28 1.73.35 2.59.56a4.27 4.27 0 0 1 3.16 2.29 18.16 18.16 0 0 1 1 3.17L598 132c.49 2.45 1 4.82 1.37 7.27.3 1.65.88 3.16 1.27 4.82s.77 3.3 1.26 5c.68 2 1.16 4 1.75 6.11l.29 1.37c0 .86.58 1.65.49 2.44a29.8 29.8 0 0 0 .78 5.11c.39 1.51.59 3 .88 4.54l.69 3.38a18.26 18.26 0 0 1 .3 2.3l.29 1.37a.94.94 0 0 1 .01.67zm-10.91-25.95l-.68-3.17c-.59-2.22-1.07-4.46-1.56-6.68a23.25 23.25 0 0 0-1.07-4.39 21.59 21.59 0 0 1-1-2.59c-.39-1-.68-2.09-1-3.09 0-.15-.1-.36-.29-.36s-.38.14-.47.36l-.48 1.37c-.47 1.37-.94 2.74-1.32 4.18l-.75 3c-1 3.1-2 6.2-2.82 9.3a26.26 26.26 0 0 1-.76 2.6c0 .36.2.5.58.5.86-.08 1.72-.08 2.58-.09a53.69 53.69 0 0 1 8.31-.25c.73.03.83-.12.73-.69zm10.24 25.37c0-.14 0-.21-.19-.28s-.19.07-.19.14a.34.34 0 0 0 .19.29c.19.05.19-.07.19-.15z" transform="translate(-2.3 -7.3)"/>
</svg>